<?xml version="1.0" encoding="UTF-8" standalone="no"?>
<!-- Created with Inkscape (http://www.inkscape.org/) -->

<svg
   xmlns:dc="http://purl.org/dc/elements/1.1/"
   xmlns:cc="http://creativecommons.org/ns#"
   xmlns:rdf="http://www.w3.org/1999/02/22-rdf-syntax-ns#"
   xmlns:svg="http://www.w3.org/2000/svg"
   xmlns="http://www.w3.org/2000/svg"
   xmlns:xlink="http://www.w3.org/1999/xlink"
   xmlns:sodipodi="http://sodipodi.sourceforge.net/DTD/sodipodi-0.dtd"
   xmlns:inkscape="http://www.inkscape.org/namespaces/inkscape"
   version="1.1"
   width="24"
   height="24"
   id="svg4073"
   inkscape:version="0.47 r22583"
   sodipodi:docname="network-transmit.svg">
  <metadata
     id="metadata19">
    <rdf:RDF>
      <cc:Work
         rdf:about="">
        <dc:format>image/svg+xml</dc:format>
        <dc:type
           rdf:resource="http://purl.org/dc/dcmitype/StillImage" />
        <dc:title></dc:title>
      </cc:Work>
    </rdf:RDF>
  </metadata>
  <sodipodi:namedview
     pagecolor="#ffffff"
     bordercolor="#666666"
     borderopacity="1"
     objecttolerance="10"
     gridtolerance="10"
     guidetolerance="10"
     inkscape:pageopacity="0"
     inkscape:pageshadow="2"
     inkscape:window-width="1280"
     inkscape:window-height="750"
     id="namedview17"
     showgrid="false"
     inkscape:zoom="20.333333"
     inkscape:cx="16.248141"
     inkscape:cy="11.693522"
     inkscape:window-x="0"
     inkscape:window-y="24"
     inkscape:window-maximized="1"
     inkscape:current-layer="svg4073" />
  <defs
     id="defs4075">
    <inkscape:perspective
       sodipodi:type="inkscape:persp3d"
       inkscape:vp_x="0 : 12 : 1"
       inkscape:vp_y="0 : 1000 : 0"
       inkscape:vp_z="24 : 12 : 1"
       inkscape:persp3d-origin="12 : 8 : 1"
       id="perspective21" />
    <linearGradient
       x1="25.024395"
       y1="5.0470595"
       x2="25.024395"
       y2="34.307468"
       id="linearGradient3975"
       xlink:href="#linearGradient3587-6-5-3"
       gradientUnits="userSpaceOnUse"
       gradientTransform="matrix(0.41011047,0,0,0.41011047,2.737234,9.930148)" />
    <linearGradient
       id="linearGradient3587-6-5-3">
      <stop
         id="stop3589-9-2-2"
         style="stop-color:#000000;stop-opacity:1"
         offset="0" />
      <stop
         id="stop3591-7-4-73"
         style="stop-color:#363636;stop-opacity:1"
         offset="1" />
    </linearGradient>
    <linearGradient
       x1="25.024395"
       y1="29.430733"
       x2="25.024395"
       y2="7.4854269"
       id="linearGradient3956"
       xlink:href="#linearGradient3587-6-5"
       gradientUnits="userSpaceOnUse"
       gradientTransform="matrix(0.41011047,0,0,-0.41011047,10.737234,31.069852)" />
    <linearGradient
       id="linearGradient3587-6-5">
      <stop
         id="stop3589-9-2"
         style="stop-color:#000000;stop-opacity:1"
         offset="0" />
      <stop
         id="stop3591-7-4"
         style="stop-color:#363636;stop-opacity:1"
         offset="1" />
    </linearGradient>
    <linearGradient
       y2="5.9594598"
       x2="10.4375"
       y1="2.8783782"
       x1="10.4375"
       gradientUnits="userSpaceOnUse"
       id="linearGradient3748"
       xlink:href="#linearGradient3587-6-5-3-9"
       inkscape:collect="always" />
    <linearGradient
       y2="20.459871"
       x2="17.655737"
       y1="7.7213116"
       x1="17.655737"
       gradientTransform="matrix(0.94102624,0,0,0.98738786,0.52432945,0.07934641)"
       gradientUnits="userSpaceOnUse"
       id="linearGradient3746"
       xlink:href="#linearGradient3587-6-5-3-9"
       inkscape:collect="always" />
    <linearGradient
       y2="18.492548"
       x2="11.852459"
       y1="3.8852458"
       x1="11.852459"
       gradientUnits="userSpaceOnUse"
       id="linearGradient3744"
       xlink:href="#linearGradient3587-6-5-3-9"
       inkscape:collect="always" />
    <linearGradient
       gradientUnits="userSpaceOnUse"
       y2="5.9594598"
       x2="10.4375"
       y1="2.8783782"
       x1="10.4375"
       id="linearGradient3713"
       xlink:href="#linearGradient3587-6-5-3-9"
       inkscape:collect="always" />
    <linearGradient
       y2="18.492548"
       x2="11.852459"
       y1="3.8852458"
       x1="11.852459"
       gradientUnits="userSpaceOnUse"
       id="linearGradient3683"
       xlink:href="#linearGradient3587-6-5-3-9"
       inkscape:collect="always" />
    <linearGradient
       gradientTransform="matrix(0.94102624,0,0,0.98738786,0.52432945,0.07934641)"
       gradientUnits="userSpaceOnUse"
       y2="20.459871"
       x2="17.655737"
       y1="7.7213116"
       x1="17.655737"
       id="linearGradient3660"
       xlink:href="#linearGradient3587-6-5-3-9"
       inkscape:collect="always" />
    <linearGradient
       y2="7.4854269"
       x2="25.024395"
       y1="29.430733"
       x1="25.024395"
       gradientTransform="matrix(0.41011047,0,0,-0.41011047,32.130677,21.791164)"
       gradientUnits="userSpaceOnUse"
       id="linearGradient3619"
       xlink:href="#linearGradient3587-6-5-8"
       inkscape:collect="always" />
    <linearGradient
       y2="34.307468"
       x2="25.024395"
       y1="5.0470595"
       x1="25.024395"
       gradientTransform="matrix(0.41011047,0,0,0.41011047,24.130677,0.6514596)"
       gradientUnits="userSpaceOnUse"
       id="linearGradient3616"
       xlink:href="#linearGradient3587-6-5-3-9"
       inkscape:collect="always" />
    <linearGradient
       id="linearGradient3587-6-5-8">
      <stop
         offset="0"
         style="stop-color:#000000;stop-opacity:1"
         id="stop3589-9-2-3" />
      <stop
         offset="1"
         style="stop-color:#363636;stop-opacity:1"
         id="stop3591-7-4-0" />
    </linearGradient>
    <linearGradient
       gradientTransform="matrix(0.41011047,0,0,-0.41011047,10.737234,31.069852)"
       gradientUnits="userSpaceOnUse"
       xlink:href="#linearGradient3587-6-5-8"
       id="linearGradient3956-2"
       y2="7.4854269"
       x2="25.024395"
       y1="29.430733"
       x1="25.024395" />
    <linearGradient
       id="linearGradient3587-6-5-3-9">
      <stop
         offset="0"
         style="stop-color:#000000;stop-opacity:1"
         id="stop3589-9-2-2-3" />
      <stop
         offset="1"
         style="stop-color:#363636;stop-opacity:1"
         id="stop3591-7-4-73-9" />
    </linearGradient>
    <linearGradient
       gradientTransform="matrix(0.41011047,0,0,0.41011047,2.737234,9.930148)"
       gradientUnits="userSpaceOnUse"
       xlink:href="#linearGradient3587-6-5-3-9"
       id="linearGradient3975-7"
       y2="34.307468"
       x2="25.024395"
       y1="5.0470595"
       x1="25.024395" />
    <inkscape:perspective
       id="perspective21-4"
       inkscape:persp3d-origin="12 : 8 : 1"
       inkscape:vp_z="24 : 12 : 1"
       inkscape:vp_y="0 : 1000 : 0"
       inkscape:vp_x="0 : 12 : 1"
       sodipodi:type="inkscape:persp3d" />
  </defs>
  <g
     id="g2940"
     transform="translate(-5e-8,0.798939)">
    <path
       id="path3725"
       d="m 7.2500001,3.79481 0,1 -1.8125,0 c -0.284466,0 -0.5,0.246785 -0.5,0.53125 l 0,13.562501 c 0,0.284466 0.215534,0.53125 0.5,0.53125 l 3.9999998,0 0,1.28125 c 0,0.284466 0.215534,0.5 0.5,0.5 l 8.6250001,0 c 0.284466,0 0.5,-0.215534 0.5,-0.5 l 0,-11.5625011 c 0,-0.284465 -0.215534,-0.4999995 -0.5,-0.4999995 l -2.125,0 0,-3.3125004 c 0,-0.284465 -0.246784,-0.53125 -0.53125,-0.53125 l -1.75,0 0,-1 -6.90625,0 z"
       style="opacity:0.6;fill:#ffffff;fill-opacity:1;stroke:none" />
    <g
       transform="translate(0.25378956,-0.07943903)"
       id="g3717">
      <path
         style="opacity:0.7;fill:url(#linearGradient3744);fill-opacity:1;stroke:none"
         d="m 5.1875,3.875 c -0.2844657,0 -0.5,0.2467843 -0.5,0.53125 l 0,13.5625 c 0,0.284466 0.2155343,0.53125 0.5,0.53125 l 4,0 0,-10.28125 c 0,-0.2844657 0.2155343,-0.5 0.5,-0.5 l 6.5,0 0,-3.3125 C 16.1875,4.1217843 15.940716,3.875 15.65625,3.875 l -1.78125,0 0,2.09375 -6.875,0 0,-2.09375 -1.8125,0 z"
         id="rect2841" />
      <rect
         style="opacity:0.45;fill:url(#linearGradient3746);fill-opacity:1;stroke:none"
         id="rect3652"
         width="9.626236"
         height="12.577056"
         x="9.1786852"
         y="7.7032757"
         rx="0.51347595"
         ry="0.51347595" />
      <path
         style="opacity:0.7;fill:#ffffff;fill-opacity:1;stroke:none"
         d="M 10.28125,8.25 C 9.9967843,8.25 9.75,8.4655343 9.75,8.75 l 0,10.46875 c 0,0.284466 0.2467843,0.53125 0.53125,0.53125 l 7.4375,0 c 0.284466,0 0.5,-0.246784 0.5,-0.53125 l 0,-10.46875 c 0,-0.2844657 -0.215534,-0.5 -0.5,-0.5 l -7.4375,0 z m 1.0625,1.25 5.34375,0 c 0.284466,0 0.53125,0.1922869 0.53125,0.4375 0,0.245213 -0.246784,0.4375 -0.53125,0.4375 l -5.34375,0 c -0.284466,0 -0.53125,-0.192287 -0.53125,-0.4375 0,-0.2452131 0.246784,-0.4375 0.53125,-0.4375 z m 0,2.46875 4.5625,0 c 0.284466,0 0.53125,0.223537 0.53125,0.46875 0,0.245213 -0.246784,0.4375 -0.53125,0.4375 l -4.5625,0 c -0.284466,0 -0.53125,-0.192287 -0.53125,-0.4375 0,-0.245213 0.246784,-0.46875 0.53125,-0.46875 z m 0,2.5 3.03125,0 c 0.284466,0 0.53125,0.192287 0.53125,0.4375 0,0.245213 -0.246784,0.46875 -0.53125,0.46875 l -3.03125,0 c -0.284466,0 -0.53125,-0.223537 -0.53125,-0.46875 0,-0.245213 0.246784,-0.4375 0.53125,-0.4375 z m 0,2.5 5.34375,0 c 0.284466,0 0.53125,0.192287 0.53125,0.4375 0,0.245213 -0.246784,0.4375 -0.53125,0.4375 l -5.34375,0 c -0.284466,0 -0.53125,-0.192287 -0.53125,-0.4375 0,-0.245213 0.246784,-0.4375 0.53125,-0.4375 z"
         id="rect3670" />
      <rect
         style="opacity:0.45;fill:url(#linearGradient3748);fill-opacity:1;stroke:none"
         id="rect3702"
         width="6.891892"
         height="3.0810814"
         x="6.9915543"
         y="2.8783782"
         rx="0.51347595"
         ry="0" />
    </g>
  </g>
</svg>
