/* XPM */
static char * firefox_32x32_xpm[] = {
"32 32 658 2",
"  	c None",
". 	c #2263A3",
"+ 	c #136FAF",
"@ 	c #127EBB",
"# 	c #1493CC",
"$ 	c #179DD4",
"% 	c #1593CB",
"& 	c #138CC6",
"* 	c #167FBA",
"= 	c #1E75B2",
"- 	c #2669A8",
"; 	c #2D4D8D",
"> 	c #10498B",
", 	c #065496",
"' 	c #0561A1",
") 	c #0A6FAE",
"! 	c #0F80BC",
"~ 	c #1AAFE1",
"{ 	c #1EB8E8",
"] 	c #1BAADD",
"^ 	c #1688BE",
"/ 	c #3B95B5",
"( 	c #3682A6",
"_ 	c #316B93",
": 	c #2B5995",
"< 	c #17377C",
"[ 	c #00357B",
"} 	c #004184",
"| 	c #024D90",
"1 	c #05589A",
"2 	c #0B66A7",
"3 	c #0F72B1",
"4 	c #1AABDE",
"5 	c #20BCEB",
"6 	c #1EB6E7",
"7 	c #1593CC",
"8 	c #0F7DB8",
"9 	c #1578AF",
"0 	c #317F9C",
"a 	c #6D8D5B",
"b 	c #C4AB35",
"c 	c #C4A645",
"d 	c #EA8026",
"e 	c #E18434",
"f 	c #0B2368",
"g 	c #02256C",
"h 	c #003076",
"i 	c #003A7F",
"j 	c #07488A",
"k 	c #3F6F95",
"l 	c #6D8F9C",
"m 	c #2371A5",
"n 	c #17AADD",
"o 	c #1BB7E7",
"p 	c #1AB2E4",
"q 	c #138EC8",
"r 	c #0C75B3",
"s 	c #086CAA",
"t 	c #146296",
"u 	c #385C71",
"v 	c #AC7736",
"w 	c #FAAC2C",
"x 	c #FDCF40",
"y 	c #FBAF3F",
"z 	c #E67B1F",
"A 	c #D87020",
"B 	c #573440",
"C 	c #1B275E",
"D 	c #343B67",
"E 	c #334470",
"F 	c #304773",
"G 	c #AD9580",
"H 	c #E8B17E",
"I 	c #40586C",
"J 	c #0C75AA",
"K 	c #12ACDD",
"L 	c #14A5D9",
"M 	c #1195CD",
"N 	c #0F89C2",
"O 	c #0972B0",
"P 	c #077BB5",
"Q 	c #0A66A0",
"R 	c #365F80",
"S 	c #9A9060",
"T 	c #DCA94A",
"U 	c #FDBB4C",
"V 	c #FED96C",
"W 	c #FDAE59",
"X 	c #CD793C",
"Y 	c #DD6718",
"Z 	c #D55613",
"` 	c #C9612F",
" .	c #C0805B",
"..	c #D89766",
"+.	c #D79A6B",
"@.	c #D37D4C",
"#.	c #F57F3B",
"$.	c #AF5D36",
"%.	c #076A94",
"&.	c #0993C3",
"*.	c #0DA2D5",
"=.	c #0D93CB",
"-.	c #0C8BC6",
";.	c #0C93CA",
">.	c #0996CB",
",.	c #069DD0",
"'.	c #0286BD",
").	c #005090",
"!.	c #0A3B72",
"~.	c #394B5D",
"{.	c #BFA042",
"].	c #FCD93F",
"^.	c #FFDD6A",
"/.	c #F5AE63",
"(.	c #D4BA58",
"_.	c #BB542F",
":.	c #CC410D",
"<.	c #E25411",
"[.	c #EB6115",
"}.	c #EB6316",
"|.	c #EC6619",
"1.	c #ED6B1E",
"2.	c #EF681C",
"3.	c #EB641A",
"4.	c #7B3F2C",
"5.	c #0781AB",
"6.	c #059BCD",
"7.	c #08A1D4",
"8.	c #09A1D4",
"9.	c #08A1D3",
"0.	c #07A1D3",
"a.	c #049ED0",
"b.	c #019ACD",
"c.	c #008DC4",
"d.	c #006AA7",
"e.	c #003D7F",
"f.	c #003A7A",
"g.	c #113663",
"h.	c #8C8549",
"i.	c #FDD92E",
"j.	c #FFCD51",
"k.	c #EDBA44",
"l.	c #C6592A",
"m.	c #DD550C",
"n.	c #E5590A",
"o.	c #E55D0B",
"p.	c #E55B08",
"q.	c #E75907",
"r.	c #E95D0B",
"s.	c #EA6010",
"t.	c #E65C0F",
"u.	c #A8290B",
"v.	c #485B6A",
"w.	c #0990BE",
"x.	c #049BCD",
"y.	c #039DCF",
"z.	c #039CCF",
"A.	c #029BCE",
"B.	c #0198CB",
"C.	c #0093C8",
"D.	c #008CC3",
"E.	c #0083BD",
"F.	c #0066A5",
"G.	c #0067A7",
"H.	c #005E9D",
"I.	c #165681",
"J.	c #D39F30",
"K.	c #FFCA2C",
"L.	c #FEC138",
"M.	c #EDBF4F",
"N.	c #DF7726",
"O.	c #E2640F",
"P.	c #E06C16",
"Q.	c #E35E0B",
"R.	c #E65805",
"S.	c #E85C0A",
"T.	c #E75C0B",
"U.	c #C33A07",
"V.	c #C13A08",
"W.	c #B94C17",
"X.	c #4B5148",
"Y.	c #0C80A7",
"Z.	c #0092C7",
"`.	c #0091C7",
" +	c #008EC5",
".+	c #0084BD",
"++	c #0074B0",
"@+	c #0077B3",
"#+	c #0076B4",
"$+	c #006FB0",
"%+	c #0165A8",
"&+	c #205A84",
"*+	c #7A6852",
"=+	c #F9B125",
"-+	c #FFB928",
";+	c #EBA644",
">+	c #E08B3B",
",+	c #E16410",
"'+	c #E15F0C",
")+	c #E06813",
"!+	c #E45B08",
"~+	c #E55A08",
"{+	c #E85C09",
"]+	c #E85D0A",
"^+	c #E96312",
"/+	c #D85310",
"(+	c #DD6F33",
"_+	c #E6A66E",
":+	c #6C796E",
"<+	c #0B759E",
"[+	c #0087BF",
"}+	c #0075B1",
"|+	c #00488A",
"1+	c #004E90",
"2+	c #006DAE",
"3+	c #0068AB",
"4+	c #005EA3",
"5+	c #31495C",
"6+	c #C08242",
"7+	c #F7AE2C",
"8+	c #FFAF27",
"9+	c #F39A3D",
"0+	c #DB601B",
"a+	c #E15505",
"b+	c #E16711",
"c+	c #E26510",
"d+	c #E65B08",
"e+	c #E95F0C",
"f+	c #EA6715",
"g+	c #ED7222",
"h+	c #ED7B2E",
"i+	c #D1996F",
"j+	c #4B5D62",
"k+	c #00557F",
"l+	c #0070A5",
"m+	c #007BB7",
"n+	c #005898",
"o+	c #004386",
"p+	c #00488B",
"q+	c #00397C",
"r+	c #00367A",
"s+	c #00599D",
"t+	c #0060A6",
"u+	c #004E97",
"v+	c #122953",
"w+	c #ECA832",
"x+	c #FFB232",
"y+	c #FFC22D",
"z+	c #FA9136",
"A+	c #C89D73",
"B+	c #AE3919",
"C+	c #E06210",
"D+	c #E35D0A",
"E+	c #E06812",
"F+	c #E3610C",
"G+	c #E85F0D",
"H+	c #EB6817",
"I+	c #ED7121",
"J+	c #EF7D2E",
"K+	c #F18639",
"L+	c #BC7C49",
"M+	c #1C5371",
"N+	c #0067A0",
"O+	c #0072AF",
"P+	c #0075B3",
"Q+	c #00599B",
"R+	c #00377A",
"S+	c #003477",
"T+	c #002F73",
"U+	c #002D70",
"V+	c #004A90",
"W+	c #0059A1",
"X+	c #004290",
"Y+	c #0E2659",
"Z+	c #E6AE30",
"`+	c #FFBA35",
" @	c #FFD033",
".@	c #FE8B36",
"+@	c #E3A042",
"@@	c #C4642C",
"#@	c #E2620E",
"$@	c #E55705",
"%@	c #E06A14",
"&@	c #E65A08",
"*@	c #E95F0D",
"=@	c #E86414",
"-@	c #DF631D",
";@	c #DD6723",
">@	c #D5712F",
",@	c #C8793D",
"'@	c #C6834C",
")@	c #39637D",
"!@	c #0067A9",
"~@	c #006AAC",
"{@	c #0069AC",
"]@	c #00488C",
"^@	c #002E72",
"/@	c #002569",
"(@	c #002266",
"_@	c #002A6F",
":@	c #003980",
"<@	c #0D3878",
"[@	c #1C3862",
"}@	c #F0B431",
"|@	c #FFC338",
"1@	c #FFD339",
"2@	c #FF9438",
"3@	c #F6B438",
"4@	c #D26F2A",
"5@	c #DF5206",
"6@	c #E45C09",
"7@	c #E25D0A",
"8@	c #E55604",
"9@	c #E45808",
"0@	c #CA4509",
"a@	c #B12F09",
"b@	c #B03109",
"c@	c #56312A",
"d@	c #253547",
"e@	c #39424C",
"f@	c #194E77",
"g@	c #005EA2",
"h@	c #005FA5",
"i@	c #004B91",
"j@	c #002568",
"k@	c #001E61",
"l@	c #001B5E",
"m@	c #00185A",
"n@	c #001657",
"o@	c #343154",
"p@	c #524B54",
"q@	c #FCB534",
"r@	c #FFC539",
"s@	c #FFD03A",
"t@	c #FFA538",
"u@	c #F5C539",
"v@	c #CC4B1A",
"w@	c #D94605",
"x@	c #E1640F",
"y@	c #E35302",
"z@	c #E55403",
"A@	c #D74C06",
"B@	c #B53308",
"C@	c #B33108",
"D@	c #BC3A0A",
"E@	c #61433F",
"F@	c #043E7A",
"G@	c #004585",
"H@	c #004B8E",
"I@	c #00539C",
"J@	c #00549E",
"K@	c #00549F",
"L@	c #00468F",
"M@	c #002468",
"N@	c #001557",
"O@	c #001354",
"P@	c #001151",
"Q@	c #4D495B",
"R@	c #CB853B",
"S@	c #FEA636",
"T@	c #FFC639",
"U@	c #FFC93A",
"V@	c #FFC438",
"W@	c #F4BE38",
"X@	c #BF2D13",
"Y@	c #DB5009",
"Z@	c #D54B07",
"`@	c #BD3E0B",
" #	c #C7450C",
".#	c #CA5C1D",
"+#	c #4C4B62",
"@#	c #004592",
"##	c #004895",
"$#	c #014B97",
"%#	c #164E8E",
"&#	c #4B5B79",
"*#	c #3F5C83",
"=#	c #044892",
"-#	c #002B71",
";#	c #001050",
">#	c #000E4D",
",#	c #000C49",
"'#	c #00185D",
")#	c #4B5466",
"!#	c #F0A135",
"~#	c #FE9F36",
"{#	c #FFC73A",
"]#	c #FFC63A",
"^#	c #FFDE38",
"/#	c #EAA93A",
"(#	c #B11B14",
"_#	c #D8530F",
":#	c #E25103",
"<#	c #E25C09",
"[#	c #E45705",
"}#	c #DB5008",
"|#	c #CA460C",
"1#	c #CC4C10",
"2#	c #D04F10",
"3#	c #E7600F",
"4#	c #E86413",
"5#	c #915642",
"6#	c #69525A",
"7#	c #9B5E45",
"8#	c #E1702D",
"9#	c #F57D33",
"0#	c #F78F4C",
"a#	c #AA8775",
"b#	c #1A2152",
"c#	c #000A46",
"d#	c #000844",
"e#	c #000741",
"f#	c #001861",
"g#	c #64565B",
"h#	c #F9BC33",
"i#	c #FEAB38",
"j#	c #FFC33B",
"k#	c #FFD43A",
"l#	c #FEE638",
"m#	c #AB231B",
"n#	c #D04C11",
"o#	c #DF4E04",
"p#	c #E45503",
"q#	c #E35607",
"r#	c #D7510D",
"s#	c #D65511",
"t#	c #D95913",
"u#	c #D24D0E",
"v#	c #D9540F",
"w#	c #ED6714",
"x#	c #EE6B17",
"y#	c #F06D1A",
"z#	c #EE6D1B",
"A#	c #E35C15",
"B#	c #B34A18",
"C#	c #6B4839",
"D#	c #17143B",
"E#	c #00063F",
"F#	c #00053D",
"G#	c #060E4A",
"H#	c #0D1F68",
"I#	c #976A4B",
"J#	c #FEC333",
"K#	c #FFBC42",
"L#	c #FFC843",
"M#	c #FFE738",
"N#	c #F8C738",
"O#	c #C12A0B",
"P#	c #D64B0A",
"Q#	c #E35604",
"R#	c #E45403",
"S#	c #E65705",
"T#	c #E55A0A",
"U#	c #E35E12",
"V#	c #E66315",
"W#	c #DB5712",
"X#	c #A82607",
"Y#	c #B02907",
"Z#	c #BE3409",
"`#	c #C03609",
" $	c #AA2F0B",
".$	c #541E1A",
"+$	c #0A0721",
"@$	c #00032B",
"#$	c #000333",
"$$	c #000337",
"%$	c #000742",
"&$	c #4D3347",
"*$	c #5F3E51",
"=$	c #EA8F35",
"-$	c #FEC137",
";$	c #FFDD6E",
">$	c #FFD349",
",$	c #FFD038",
"'$	c #E79A37",
")$	c #B11E10",
"!$	c #C93708",
"~$	c #E05C0C",
"{$	c #E75A08",
"]$	c #EC6512",
"^$	c #ED6916",
"/$	c #6E1B0D",
"($	c #5A1512",
"_$	c #3D101B",
":$	c #23142F",
"<$	c #030D39",
"[$	c #00032E",
"}$	c #000232",
"|$	c #000133",
"1$	c #000132",
"2$	c #231C4D",
"3$	c #C06935",
"4$	c #C06A36",
"5$	c #FC9A31",
"6$	c #FED34F",
"7$	c #FFE589",
"8$	c #FFC13E",
"9$	c #F9AF38",
"0$	c #A13730",
"a$	c #BB2303",
"b$	c #CB430E",
"c$	c #D84A07",
"d$	c #E45504",
"e$	c #E75B08",
"f$	c #E85E0B",
"g$	c #EA600D",
"h$	c #EC6411",
"i$	c #EE6915",
"j$	c #CD5B1B",
"k$	c #672E2D",
"l$	c #170B47",
"m$	c #030B5B",
"n$	c #001062",
"o$	c #000C57",
"p$	c #000237",
"q$	c #0A052F",
"r$	c #522A2C",
"s$	c #D06C2C",
"t$	c #F9832C",
"u$	c #FB892E",
"v$	c #FDC043",
"w$	c #FFF58B",
"x$	c #FEBD56",
"y$	c #FFA537",
"z$	c #E18937",
"A$	c #AE1F11",
"B$	c #C13003",
"C$	c #C32F05",
"D$	c #DC4A03",
"E$	c #E76008",
"F$	c #EB6310",
"G$	c #EC6612",
"H$	c #EE6815",
"I$	c #E56619",
"J$	c #B0502A",
"K$	c #763A41",
"L$	c #3F2859",
"M$	c #35245B",
"N$	c #572F45",
"O$	c #944B2E",
"P$	c #E07127",
"Q$	c #F47926",
"R$	c #F9882C",
"S$	c #FCB338",
"T$	c #FEEC6E",
"U$	c #FFE778",
"V$	c #FE9639",
"W$	c #F79036",
"X$	c #984F4B",
"Y$	c #B30E02",
"Z$	c #BA1800",
"`$	c #C83501",
" %	c #D54503",
".%	c #DC5108",
"+%	c #E5590B",
"@%	c #EA620F",
"#%	c #ED6815",
"$%	c #EF6A17",
"%%	c #EF6C19",
"&%	c #F06F1B",
"*%	c #F1721E",
"=%	c #F2731F",
"-%	c #F06F1E",
";%	c #EC691C",
">%	c #EA671A",
",%	c #F0801E",
"'%	c #FABF34",
")%	c #FDDE51",
"!%	c #FEE05F",
"~%	c #FDA940",
"{%	c #F78B35",
"]%	c #C27434",
"^%	c #9D3431",
"/%	c #B10301",
"(%	c #BB1A00",
"_%	c #C22501",
":%	c #C63601",
"<%	c #CC3B04",
"[%	c #DE4C0A",
"}%	c #E4560E",
"|%	c #E05010",
"1%	c #E55913",
"2%	c #ED6616",
"3%	c #EE6816",
"4%	c #EB6516",
"5%	c #E35712",
"6%	c #DB4B0E",
"7%	c #E05F0F",
"8%	c #EC8916",
"9%	c #F4AA1C",
"0%	c #F9C32A",
"a%	c #FCD23D",
"b%	c #FCAF3B",
"c%	c #FD8E34",
"d%	c #D07832",
"e%	c #9C100C",
"f%	c #B10201",
"g%	c #B40400",
"h%	c #B50500",
"i%	c #BC1D00",
"j%	c #BC1E00",
"k%	c #BD1502",
"l%	c #C01703",
"m%	c #BB0E02",
"n%	c #C42502",
"o%	c #CD3D04",
"p%	c #DB6209",
"q%	c #E37A0D",
"r%	c #EC9214",
"s%	c #F2A419",
"t%	c #F6AE21",
"u%	c #F89A28",
"v%	c #F68530",
"w%	c #D0762F",
"x%	c #990D09",
"y%	c #AE0201",
"z%	c #B30000",
"A%	c #B40500",
"B%	c #B40200",
"C%	c #B40100",
"D%	c #B70800",
"E%	c #BF1B00",
"F%	c #C93403",
"G%	c #D65507",
"H%	c #DF6C0C",
"I%	c #E98612",
"J%	c #ED8C17",
"K%	c #EF7C1F",
"L%	c #F37926",
"M%	c #C36C2B",
"N%	c #A40905",
"O%	c #AD0301",
"P%	c #B50300",
"Q%	c #BA0D00",
"R%	c #C21F01",
"S%	c #CF3E06",
"T%	c #D74F0A",
"U%	c #DE5410",
"V%	c #DF5715",
"W%	c #D05D1D",
"X%	c #A35322",
"Y%	c #83130E",
"Z%	c #950C08",
"`%	c #A80503",
" &	c #B30100",
".&	c #B50000",
"+&	c #B40000",
"@&	c #B80800",
"#&	c #BD1100",
"$&	c #C72404",
"%&	c #C73109",
"&&	c #B73D11",
"*&	c #A04319",
"=&	c #7C130E",
"-&	c #8C150E",
";&	c #89110B",
">&	c #8B170E",
",&	c #831A0F",
"                                                                ",
"                                                                ",
"                      . + @ # $ % & * = -                       ",
"                ; > , ' ) ! ~ { ] % ^ / ( _ :                   ",
"              < [ } | 1 2 3 4 5 6 7 8 9 0 a b c                 ",
"      d e   f g h i j k l m n o p q r s t u v w x y             ",
"      z A B C D E F G H I J K L M N O P Q R S T U V W           ",
"    X Y Z `  ...+.@.#.$.%.&.*.=.-.;.>.,.'.).!.~.{.].^./.(.      ",
"    _.:.<.[.}.|.1.2.3.4.5.6.7.8.9.0.a.b.c.d.e.f.g.h.i.j.k.      ",
"    l.m.n.o.p.q.r.s.t.u.v.w.x.y.z.A.B.C.D.E.F.G.H.I.J.K.L.M.    ",
"    N.O.P.Q.R.q.S.r.T.U.V.W.X.Y.Z.`. +.+++@+#+$+%+&+*+=+-+;+    ",
"  >+,+'+)+!+~+q.{+]+^+/+(+_+:+<+[+}+@+}+|+1+2+3+4+5+6+7+8+9+    ",
"  0+a+b+Q.c+d+{+e+f+g+h+i+j+k+l+m+n+o+p+q+r+s+t+u+v+w+x+y+z+A+  ",
"  B+C+D+E+F+{+G+H+I+J+K+L+M+N+O+P+Q+R+S+T+U+V+W+X+Y+Z+`+ @.@+@  ",
"  @@#@$@%@&@*@=@-@;@>@,@'@)@!@~@{@3+]@^@/@(@_@:@<@[@}@|@1@2@3@  ",
"  4@5@6@7@8@9@0@a@b@c@d@e@f@g@t+t+h@i@j@k@l@m@n@o@p@q@r@s@t@u@  ",
"  v@w@x@y@z@A@B@C@D@E@F@G@H@I@J@K@J@L@M@N@O@P@O@Q@R@S@T@U@V@W@  ",
"  X@Y@7@7@z@Z@D@`@ #.#+#@###$#%#&#*#=#-#;#>#,#'#)#!#~#{#]#^#/#  ",
"  (#_#:#<#[#}#|#1#2#3#4#5#6#7#8#9#0#a#b#c#d#e#f#g#h#i#j#k#l#    ",
"  m#n#o#p#$@q#r#s#t#u#v#w#x#y#z#A#B#C#D#E#F#G#H#I#J#K#L#M#N#    ",
"    O#P#Q#R#S#T#U#V#W#X#Y#Z#`# $.$+$@$#$$$%$&$*$=$-$;$>$,$'$    ",
"    )$!$~$R#8@{$*@]$^$s#/$($_$:$<$[$}$|$1$2$3$4$5$6$7$8$9$      ",
"    0$a$b$c$d$e$f$g$h$i$j$k$l$m$n$o$p$q$r$s$t$u$v$w$x$y$z$      ",
"      A$B$C$D$E$f$g$F$G$H$I$J$K$L$M$N$O$P$Q$R$S$T$U$V$W$        ",
"      X$Y$Z$`$ %.%+%@%]$#%$%%%&%*%=%-%;%>%,%'%)%!%~%{%]%        ",
"        ^%/%(%_%:%<%[%}%|%1%2%3%4%5%6%7%8%9%0%a%b%c%d%          ",
"          e%f%g%h%i%j%k%l%m%m%l%n%o%p%q%r%s%t%u%v%w%            ",
"            x%y%z%z%A%B%z%z%C%D%E%F%G%H%I%J%K%L%M%              ",
"                N%O%z%z%z%z%z%P%Q%R%S%T%U%V%W%X%                ",
"                  Y%Z%`% &.&+&B%@&#&$&%&&&*&                    ",
"                          =&-&;&>&,&                            ",
"                                                                "};
