/* XPM */
static char * firefox_16x16_xpm[] = {
"16 16 173 2",
"  	c None",
". 	c #115C9D",
"+ 	c #1077B5",
"@ 	c #19A6DA",
"# 	c #1697CE",
"$ 	c #2185B8",
"% 	c #30729F",
"& 	c #0E2C71",
"* 	c #00387D",
"= 	c #135792",
"- 	c #2A76A6",
"; 	c #1BB2E3",
"> 	c #18A2D8",
", 	c #0E76B1",
"' 	c #3A737F",
") 	c #CC9D37",
"! 	c #F8BD43",
"~ 	c #DD7425",
"{ 	c #B45729",
"] 	c #7A5E61",
"^ 	c #836966",
"/ 	c #CE885C",
"( 	c #17729B",
"_ 	c #10A1D6",
": 	c #0E8FC8",
"< 	c #0888C0",
"[ 	c #10679B",
"} 	c #6E705E",
"| 	c #EDC34E",
"1 	c #F9BC63",
"2 	c #CD4F18",
"3 	c #E65B0F",
"4 	c #E95F10",
"5 	c #EC6415",
"6 	c #BD4A18",
"7 	c #1782A8",
"8 	c #069ED1",
"9 	c #059ED1",
"0 	c #0299CC",
"a 	c #0082BB",
"b 	c #005191",
"c 	c #2D5C72",
"d 	c #F3C437",
"e 	c #F3C045",
"f 	c #E16714",
"g 	c #E2640F",
"h 	c #E65907",
"i 	c #E85D0A",
"j 	c #DB530D",
"k 	c #CF6730",
"l 	c #34707F",
"m 	c #0088BF",
"n 	c #007FB9",
"o 	c #00609F",
"p 	c #006FAF",
"q 	c #14598B",
"r 	c #CB9239",
"s 	c #F7AA34",
"t 	c #C55422",
"u 	c #E25F0C",
"v 	c #E2630E",
"w 	c #E85C0A",
"x 	c #EB6816",
"y 	c #EF7C2E",
"z 	c #7D7163",
"A 	c #00689D",
"B 	c #0068A7",
"C 	c #003D81",
"D 	c #003376",
"E 	c #00579D",
"F 	c #083875",
"G 	c #F4B032",
"H 	c #FDAB33",
"I 	c #E25A09",
"J 	c #E35E0A",
"K 	c #E0580D",
"L 	c #C74A15",
"M 	c #865437",
"N 	c #545E63",
"O 	c #0064A7",
"P 	c #0064A8",
"Q 	c #00397E",
"R 	c #002063",
"S 	c #002468",
"T 	c #2C3B61",
"U 	c #FBBC35",
"V 	c #FFB739",
"W 	c #EFB23A",
"X 	c #C14421",
"Y 	c #DE560A",
"Z 	c #E45605",
"` 	c #C74107",
" .	c #BD3B0A",
"..	c #5F4A4E",
"+.	c #00478F",
"@.	c #065098",
"#.	c #22588E",
"$.	c #01377F",
"%.	c #001152",
"&.	c #001253",
"*.	c #95714C",
"=.	c #FEB538",
"-.	c #FFCC39",
";.	c #DA500A",
">.	c #E45806",
",.	c #D84F0A",
"'.	c #D35211",
").	c #DE5910",
"!.	c #B55F32",
"~.	c #D66A2A",
"{.	c #E06D2B",
"].	c #52414F",
"^.	c #000742",
"/.	c #051355",
"(.	c #BC9043",
"_.	c #FFBD3E",
":.	c #FDDA39",
"<.	c #C4330B",
"[.	c #E35705",
"}.	c #E65807",
"|.	c #E76111",
"1.	c #D14F10",
"2.	c #8D230C",
"3.	c #732218",
"4.	c #180D29",
"5.	c #000231",
"6.	c #090A3E",
"7.	c #8B5141",
"8.	c #F8B03B",
"9.	c #FFD560",
"0.	c #F0AD38",
"a.	c #AC2D1C",
"b.	c #CA3B07",
"c.	c #E45706",
"d.	c #E95F0C",
"e.	c #EC6512",
"f.	c #C2561D",
"g.	c #502843",
"h.	c #1D1A5B",
"i.	c #3D2036",
"j.	c #BE6029",
"k.	c #FA9130",
"l.	c #FEE26D",
"m.	c #FCA23F",
"n.	c #AF170D",
"o.	c #C62E01",
"p.	c #D54706",
"q.	c #E65B0E",
"r.	c #E85F13",
"s.	c #EF6B18",
"t.	c #ED6819",
"u.	c #E66116",
"v.	c #EE871A",
"w.	c #FBCD3B",
"x.	c #FDB244",
"y.	c #D87D34",
"z.	c #AC0502",
"A.	c #B60900",
"B.	c #B80F01",
"C.	c #B80901",
"D.	c #B90B01",
"E.	c #C62C02",
"F.	c #DD670A",
"G.	c #ED9216",
"H.	c #F48F24",
"I.	c #D4762E",
"J.	c #9D0A07",
"K.	c #A90402",
"L.	c #B30000",
"M.	c #B40100",
"N.	c #BC1100",
"O.	c #CD3807",
"P.	c #C84B14",
"                                ",
"          . + @ # $ %           ",
"      & * = - ; > , ' ) !       ",
"  ~ { ] ^ / ( _ : < [ } | 1     ",
"  2 3 4 5 6 7 8 9 0 a b c d e   ",
"  f g h i j k l m n o p q r s   ",
"t u v w x y z A B C D E F G H   ",
"  I J K L M N O P Q R S T U V W ",
"X Y Z `  ...+.@.#.$.%.&.*.=.-.  ",
"  ;.>.,.'.).!.~.{.].^./.(._.:.  ",
"  <.[.}.|.1.2.3.4.5.6.7.8.9.0.  ",
"  a.b.c.d.e.f.g.h.i.j.k.l.m.    ",
"    n.o.p.q.r.s.t.u.v.w.x.y.    ",
"      z.A.B.C.D.E.F.G.H.I.      ",
"        J.K.L.M.N.O.P.          ",
"                                "};
