/* XPM */
static char *web_browser___x__[] = {
/* columns rows colors chars-per-pixel */
"16 16 159 2",
"   c #576F95",
".  c #58749D",
"X  c #5A769F",
"o  c #5977A0",
"O  c #5877A2",
"+  c #5978A2",
"@  c #5979A3",
"#  c #5A79A3",
"$  c #5E7AA3",
"%  c #5A79A4",
"&  c #5A7AA4",
"*  c #5B7AA4",
"=  c #5D7DA6",
"-  c #5E7DA6",
";  c #627BA3",
":  c #627CA5",
">  c #617FA6",
",  c #617FA8",
"<  c #637FA8",
"1  c #4F80B6",
"2  c #5685B7",
"3  c #5686BA",
"4  c #5988BC",
"5  c #5C8ABD",
"6  c #6983A6",
"7  c #6380A8",
"8  c #6984A9",
"9  c #708AAD",
"0  c #6D90B7",
"q  c #7591B4",
"w  c #7591B5",
"e  c #7792B6",
"r  c #7994B6",
"t  c #7A95B7",
"y  c #7E97B9",
"u  c #628FC1",
"i  c #6B96C6",
"p  c #6C96C5",
"a  c #719BC9",
"s  c #759FCB",
"d  c #819ABA",
"f  c #839BBB",
"g  c #9DA6AE",
"h  c #AEB5BC",
"j  c #8BA7C7",
"k  c #84A6CA",
"l  c #83A7CE",
"z  c #93ABC7",
"x  c #94ACC8",
"c  c #9AB0CB",
"v  c #9CB2CB",
"b  c #9BB2CC",
"n  c #9DB3CD",
"m  c #9FB4CE",
"M  c #80A7D1",
"N  c #93B6DC",
"B  c #A4B5C9",
"V  c #A5B7C9",
"C  c #A0B4CD",
"Z  c #A3B6CE",
"A  c #BABFC4",
"S  c #B8BFC6",
"D  c #B5BEC8",
"F  c #A3B8D0",
"G  c #A9BCD1",
"H  c #ABBDD3",
"J  c #AABED3",
"K  c #AFBFD4",
"L  c #A2BDDA",
"P  c #9CBDE0",
"I  c #B7C2CD",
"U  c #BCC4CC",
"Y  c #B3C1D0",
"T  c #B1C0D5",
"R  c #B1C2D6",
"E  c #BEC7D0",
"W  c #BCC8D4",
"Q  c #BECAD6",
"!  c #B5C5D8",
"~  c #B4C7DC",
"^  c #B7C8DC",
"/  c #BBC9DA",
"(  c #BECBDA",
")  c #B8C9DD",
"_  c #BCCDDF",
"`  c #ACCAE9",
"'  c #BECFE1",
"]  c #B3CCE8",
"[  c #B1CEEC",
"{  c #B5D1EE",
"}  c #BED4EB",
"|  c #BCD7F2",
" . c #C0C6CE",
".. c #C7CDD2",
"X. c #C8CED4",
"o. c #C8CFD5",
"O. c #C6CFD8",
"+. c #CED0D1",
"@. c #CED1D3",
"#. c #CAD5DF",
"$. c gray82",
"%. c LightGray",
"&. c #D7D9DB",
"*. c #DCDDDF",
"=. c #C3D2E3",
"-. c #CCD7E2",
";. c #CFD9E2",
":. c #CCD9E7",
">. c #CEDBEA",
",. c #CCDDEF",
"<. c #DBDEE0",
"1. c #D4DDE9",
"2. c #D5DFE9",
"3. c #D6DFE9",
"4. c #D5DFEB",
"5. c #DFE1E3",
"6. c #DCE1E5",
"7. c #DEE2E7",
"8. c #D9E1E9",
"9. c #DCE3E9",
"0. c #DBE4EF",
"q. c #DCE4ED",
"w. c #C9E1F9",
"e. c #CCE3FA",
"r. c #D4E5F6",
"t. c #D2E5F9",
"y. c #D5E8FC",
"u. c #DAEAFA",
"i. c #DEEDFB",
"p. c #DAEBFC",
"a. c #DEEEFF",
"s. c #DFEFFF",
"d. c gray88",
"f. c #E2E2E2",
"g. c #E0E3E4",
"h. c #E3E4E5",
"j. c #E2E4E6",
"k. c #E0E5EB",
"l. c #E4E6E8",
"z. c #EDEEEF",
"x. c #EFEFEF",
"c. c #E6EBF0",
"v. c #E6EBF4",
"b. c #E0EFFF",
"n. c #E2EFFE",
"m. c #E1F0FF",
"M. c #E2F1FF",
"N. c #E3F1FF",
"B. c #F1F2F3",
"V. c #F4F4F5",
"C. c gray96",
"Z. c #F6F6F6",
"A. c #F0F4F8",
"S. c #F8F9F9",
"D. c #F9F9F9",
"F. c #FBFBFB",
"G. c #FDFDFD",
"H. c #FEFEFE",
"J. c None",
/* pixels */
"J.J.J.J.J.J.* & + O J.J.J.J.J.J.",
"J.J.J.$ f / q.v.4.R y @ J.J.J.J.",
"J.J.> T k.;.A ( } Q 8.Z # J.J.J.",
"J.8 K 7.@.n.i.r.W  .<.c.C & J.J.",
"; d A.h.#.M.N.u.O.&.V.F.2.r J.J.",
"9 ! g.,.b.m.m.p...E B D l.F & J.",
"7 1.J e.a.s.s.>.G.H.G.j.*._ & J.",
"* 0.` | w.y.t.o.H.H.H.D.h =.& J.",
"- :.I X.] { [ G S.B.H.x.+.) & J.",
"< H 6.H.5.L P N k j C.f.g n & J.",
": t 3.H.H.z.l M s p d.%.V w J.J.",
"J., v 9.Z.S a i u 4 $.U x & J.J.",
"J.J.= c -.0 5 3 1 2 Y z @ J.J.J.",
"J.J.J.6 e m ^ ' ~ b q o J.J.J.J.",
"J.J.J.J.  X # % + . J.J.J.J.J.J.",
"J.J.J.J.J.J.J.J.J.J.J.J.J.J.J.J."
};
