/* XPM */
static char *desktop[] = {
"20 20 17 1 0 0",
"  c #000000",
"! c #204A87",
"# c #3465A4",
"$ c #BABDB6",
"% c #EFEFEF",
"& c #F0F0F0",
"' c #F1F1F1",
"( c #F3F3F3",
") c #F4F4F4",
"* c #F6F6F6",
"+ c #F7F7F7",
", c #F9F9F9",
"- c #FAFAFA",
". c #FCFCFC",
"/ c #FDFDFD",
"0 c #FFFFFF",
"1 c None",
"11111111111111111111",
"11111111111111111111",
"11111111111111111111",
"1111$$$$$$$$$$$$1111",
"111$%%%%%%%%%%%%$111",
"111$&&&&&&&&&&&&$111",
"111$''''''''''''$111",
"111$(((((((((((($111",
"111$))))))))))))$111",
"111$************$111",
"111$++++++++++++$111",
"111$,,,,,,,,,,,,$111",
"111$-!!!!!!!!!!-$111",
"111$.##########.$111",
"111$////////////$111",
"111$000000000000$111",
"1111$$$$$$$$$$$$1111",
"11111111111111111111",
"11111111111111111111",
"11111111111111111111"
};
