/* XPM */
static char *linux_140_[] = {
"48 20 184 2 0 0",
"   c #000000",
"!  c #525252",
"#  c #5A5A59",
"$  c #686868",
"%  c #696969",
"&  c #717070",
"'  c #737372",
"(  c #777776",
")  c #797878",
"*  c #797978",
"+  c #797979",
",  c #7C7C7C",
"-  c #818180",
".  c #818181",
"/  c #828282",
"0  c #858585",
"1  c #868686",
"2  c #878686",
"3  c #888787",
"4  c #888887",
"5  c #888888",
"6  c #898988",
"7  c #8B8B8A",
"8  c #8C8B8B",
"9  c #908F8F",
":  c #90908F",
";  c #929191",
"<  c #939393",
"=  c #959493",
">  c #959494",
"?  c #969594",
"@  c #959595",
"A  c #969695",
"B  c #969696",
"C  c #979696",
"D  c #989897",
"E  c #999898",
"F  c #999999",
"G  c #9A9999",
"H  c #9B9A9A",
"I  c #9C9B9B",
"J  c #9C9C9C",
"K  c #9D9C9C",
"L  c #9D9D9C",
"M  c #9E9E9D",
"N  c #A09F9F",
"O  c #A2A1A1",
"P  c #A2A2A1",
"Q  c #A3A2A2",
"R  c #A4A3A3",
"S  c #A4A4A3",
"T  c #A4A4A4",
"U  c #A5A4A4",
"V  c #A5A5A4",
"W  c #A6A5A4",
"X  c #A6A6A5",
"Y  c #A7A6A6",
"Z  c #A7A7A6",
"[  c #A7A7A7",
"\  c #A8A7A7",
"]  c #A8A8A7",
"^  c #A9A8A8",
"_  c #AAAAAA",
"`  c #ABAAAA",
"a  c #ABABAB",
"b  c #ACACAB",
"c  c #ACACAC",
"d  c #ADADAD",
"e  c #AEADAD",
"f  c #B0AFAF",
"g  c #B1B1B1",
"h  c #B2B2B1",
"i  c #B2B2B2",
"j  c #B3B3B2",
"k  c #B4B3B3",
"l  c #B5B5B4",
"m  c #B6B5B5",
"n  c #B6B6B5",
"o  c #B9B8B8",
"p  c #B9B9B8",
"q  c #BAB9B9",
"r  c #BBBAB9",
"s  c #BBBBBB",
"t  c #BEBEBE",
"u  c #BFBEBE",
"v  c #C0BFBF",
"w  c #C1C1C0",
"x  c #C1C1C1",
"y  c #C3C2C2",
"z  c #C3C3C2",
"{  c #C4C3C3",
"|  c #C5C5C4",
"}  c #C6C6C5",
"~  c #C8C7C6",
" ! c #C7C7C7",
"!! c #C8C7C7",
"#! c #C9C8C7",
"$! c #C9C9C9",
"%! c #CACAC9",
"&! c #CBCACA",
"'! c #CCCBCB",
"(! c #CCCCCC",
")! c #CDCCCC",
"*! c #CECECD",
"+! c #CFCFCE",
",! c #D0CFCF",
"-! c #D0D0D0",
".! c #D1D0D0",
"/! c #D1D1D1",
"0! c #D2D2D1",
"1! c #D3D3D2",
"2! c #D4D4D4",
"3! c #D5D4D4",
"4! c #D5D5D4",
"5! c #D6D5D4",
"6! c #D7D6D5",
"7! c #D8D8D7",
"8! c #D8D8D8",
"9! c #D9D8D8",
":! c #D9D9D8",
";! c #DAD9D9",
"<! c #DBDAD9",
"=! c #DADADA",
">! c #DCDCDB",
"?! c #DDDCDB",
"@! c #DDDDDC",
"A! c #DEDEDD",
"B! c #DFDEDE",
"C! c #DFDFDE",
"D! c #E0DFDE",
"E! c #E0DFDF",
"F! c #E1E0DF",
"G! c #E0E0E0",
"H! c #E1E0E0",
"I! c #E1E1E1",
"J! c #E2E1E1",
"K! c #E3E2E2",
"L! c #E4E3E2",
"M! c #E4E4E3",
"N! c #E5E4E3",
"O! c #E5E4E4",
"P! c #E6E5E4",
"Q! c #E5E5E5",
"R! c #E6E5E5",
"S! c #E7E6E6",
"T! c #E7E7E6",
"U! c #E8E7E6",
"V! c #E8E8E7",
"W! c #E9E8E7",
"X! c #E9E8E8",
"Y! c #EAE9E8",
"Z! c #EAE9E9",
"[! c #EBEAE9",
"\! c #EBEAEA",
"]! c #EBEBEA",
"^! c #ECEBEB",
"_! c #ECECEB",
"`! c #EDEDEC",
"a! c #EEEEED",
"b! c #EFEEED",
"c! c #EFEFEE",
"d! c #F0EFEE",
"e! c #F0EFEF",
"f! c #F1F0F0",
"g! c #F1F1F0",
"h! c #F2F1F1",
"i! c #F2F2F1",
"j! c #F2F2F2",
"k! c #F3F2F2",
"l! c #F3F3F2",
"m! c #F3F3F3",
"n! c #F4F3F3",
"o! c #F4F4F3",
"p! c #F6F5F5",
"q! c #F7F6F6",
"r! c #F7F7F7",
"s! c #F8F7F7",
"t! c #F9F9F9",
"u! c #FAFAFA",
"v! c #FBFBFB",
"w! c #FCFCFC",
"x! c #FEFEFE",
"y! c #FFFFFF",
"z! c None",
"x!x!x!x!x!x!x!x!x!x!x!x!x!x!x!x!x!x!x!x!x!x!x!x!x!x!x!x!x!x!x!x!x!x!x!x!x!x!x!x!x!x!x!x!x!x!x!x!",
"w!w!w!w!w!w!w!w!w!w!w!w!w!w!w!w!w!w!w!w!w!w!w!w!m!8!w!w!w!w!w!w!w!w!w!w!w!w!w!w!w!w!w!w!w!w!w!w!",
"v!v!v!v!v!v!v!v!v!v!v!v!v!v!v!v!v!v!v!v!v!v!v!v!Q! !=!v!v!v!v!v!v!v!v!v!v!v!v!v!v!v!v!v!v!v!v!v!",
"u!u!u!u!u!u!u!u!u!u!u!u!u!u!u!u!u!u!u!u!u!u!u!j!I!d _ G!u!u!u!u!u!u!u!u!u!u!u!u!u!u!u!u!u!u!u!u!",
"t!t!t!t!t!t!t!t!t!t!t!t!t!t!t!t!t!t!t!t!t!t!t!Q!(!c _ g r!t!t!t!t!t!t!t!t!t!t!t!t!t!t!t!t!t!t!t!",
"s!s!s!s!s!s!s!s!s!s!s!s!s!s!s!s!s!s!s!s!s!s!k!B!f U ^ \ y s!s!s!s!s!s!s!s!s!s!s!s!s!s!s!s!s!s!s!",
"q!q!q!q!q!q!q!q!q!q!q!q!q!q!q!q!q!q!q!q!q!q!K!!!H ! 2 [ T H!q!q!q!q!q!q!q!q!q!q!q!q!q!q!q!q!q!q!",
"p!p!p!p!p!p!p!p!p!p!p!p!p!p!p!p!p!p!p!p!p!n!;!` % 3!8 & Q ` Z!p!p!p!p!p!p!p!p!p!J!p!p!p!p!p!p!p!",
"o!o!o!o!o!o!o!o!o!o!o!o!l!o!o!o!o!o!o!o!o!C!} . j o!o!T * P b i!o!o!o!o!o!o!o!T!*!M!o!o!o!o!o!o!",
"l!l!l!l!l!l!l!l!l!l!l!G!1!l!l!l!l!l!l!l!a!:!X - g!l!l!i!V / M | l!l!l!l!l!l!c!@!l n i!l!l!l!l!l!",
"h!h!h!h!h!h!h!h!h!h!E!.!Y e!h!h!h!h!h!h!G!k , O!h!h!h!h!h!t + G ;!h!h!h!h!h!G!o Y R !!h!h!h!h!h!",
"f!f!f!f!f!f!f!f!e!B!{ G C x f!f!f!f!f!^!{ ) -!f!f!f!f!f!f!f!R!@ K X!f!f!f!\!u B $ 3 N /!f!f!f!f!",
"d!d!d!d!d!d!d!b!6!z I D ? A Y!d!d!d!d!H!9 z d!d!d!d!d!d!d!d!d!b!= q d!d!d!5!; & H!^ 7 I F!d!d!d!",
"a!a!a!a!a!a!_!7!p M 5 # ' <  !a!a!a!`!w Z a!a!a!a!a!a!a!a!a!a!a!V!S +!a!V!S d `!a!a!h 1 a `!a!a!",
"`!`!`!`!`!]!0!] : % 4 4!s ( L _!`!`!A!P ]!`!`!`!`!`!`!`!`!`!`!`!`!_!| 7!| 4!`!`!`!`!`!>!F w `!`!",
"^!^!^!^!S!$!E + J 9!^!^!^!,!0 )!^!\!m E!^!^!^!^!^!^!^!^!^!^!^!^!^!^!^!R!Z!^!^!^!^!^!^!^!\!i 2!^!",
"[![![!N!v 6 > P![![![![![![!&!O [!5!&![![![![![![![![![![![![![![![![![![![![![![![![![![![!#!Y!",
"Y!Y!L!e W '!Y!Y!Y!Y!Y!Y!Y!Y!Y!r <!%!W!Y!Y!Y!Y!Y!Y!Y!Y!Y!Y!Y!Y!Y!Y!Y!Y!Y!Y!Y!Y!Y!Y!Y!Y!Y!Y!Y!W!P!",
"W!D!~ D!W!W!W!W!W!W!W!W!W!W!W!W!?!W!W!W!W!W!W!W!W!W!W!W!W!W!W!W!W!W!W!W!W!W!W!W!W!W!W!W!W!W!W!W!",
"U!P!U!U!U!U!U!U!U!U!U!U!U!U!U!U!U!U!U!U!U!U!U!U!U!U!U!U!U!U!U!U!U!U!U!U!U!U!U!U!U!U!U!U!U!U!U!U!"
};
