/* XPM */
static char *windows[] = {
"20 20 16 1 0 0",
"  c #000000",
"! c #204A87",
"# c #3465A4",
"$ c #BABDB6",
"% c #E2E3E0",
"& c #EFEFEF",
"' c #F0F0F0",
"( c #F2F2F2",
") c #F4F4F4",
"* c #F6F6F6",
"+ c #F7F7F7",
", c #F9F9F9",
"- c #FBFBFB",
". c #FDFDFD",
"/ c #FFFFFF",
"0 c None",
"00000000000000000000",
"00000000000000000000",
"000$$$$$$$$$$0000000",
"00$//////////$000000",
"00$.!!!!!!!!.$000000",
"00$-########-$000000",
"00$,,,,,,,,,,$000000",
"00$+++%$$$$$$$$$$000",
"00$***$//////////$00",
"00$)))$.!!!!!!!!.$00",
"00$((($-########-$00",
"00$'''$,,,,,,,,,,$00",
"00$&&&$++++++++++$00",
"000$$$$**********$00",
"000000$))))))))))$00",
"000000$(((((((((($00",
"000000$''''''''''$00",
"000000$&&&&&&&&&&$00",
"0000000$$$$$$$$$$000",
"00000000000000000000"
};
