/* XPM */
static char * closeA_xpm[] = {
"19 38 66 1",
" 	c #99BAE3",
".	c #86ABD9",
"+	c #82A8D7",
"@	c #97B8E2",
"#	c #84A9D8",
"$	c #7499C6",
"%	c #48668A",
"&	c #7297C6",
"*	c #9CB7DA",
"=	c #B2CCED",
"-	c #95B7E1",
";	c #7DA4D4",
">	c #8CABD3",
",	c #9EBDE5",
"'	c #799DCA",
")	c #93B5E0",
"!	c #7EA5D5",
"~	c #9BBBE3",
"{	c #4E76A8",
"]	c #92B4DF",
"^	c #80A6D6",
"/	c #98B9E2",
"(	c #E1EAF6",
"_	c #90B3DE",
":	c #8EB1DD",
"<	c #93B5DF",
"[	c #8CB0DC",
"}	c #88ACDA",
"|	c #83A8D7",
"1	c #8AAEDB",
"2	c #80A6D5",
"3	c #8CAFDC",
"4	c #81A7D6",
"5	c #7AA1D2",
"6	c #90B2DE",
"7	c #779FD0",
"8	c #7EA4D4",
"9	c #8BAFDC",
"0	c #6B92C2",
"a	c #749DCF",
"b	c #7DA3D3",
"c	c #7BA2D2",
"d	c #7AA1D1",
"e	c #8FB2DE",
"f	c #94B6E1",
"g	c #79A0D1",
"h	c #455D7C",
"i	c #7099CC",
"j	c #B7D0EF",
"k	c #6690C4",
"l	c #7BA2D3",
"m	c #AEC9EB",
"n	c #789FD1",
"o	c #A9C5E9",
"p	c #779ED0",
"q	c #A5C2E7",
"r	c #769DCF",
"s	c #A0BFE5",
"t	c #759DCF",
"u	c #9CBBE3",
"v	c #749CCE",
"w	c #97B8E1",
"x	c #739BCD",
"y	c #729ACD",
"z	c #7199CC",
"A	c #89ADDA",
"  .+++++++++++.    ",
"@#$%%%%%%%%%%%$#@@@",
"+&%*=========*%&+--",
";%>,,,,,,,,,,,'%;))",
"!%,~~{{~~~{{~~.%!]]",
"^%,/{(({/{(({/.%^__",
"+%,-{((({((({-.%+::",
"#%,<<{((((({<<.%#[[",
".%,...{((({....%...",
"}%,||{((((({||.%}##",
"1%,2{((({((({2.%1||",
"3%,;{(({;{(({;.%344",
":%,55{{555{{55.%:22",
"6%>77777777777'%688",
".9%0aaaaaaaaa0%9.bb",
"c.9%%%%%%%%%%%9.ccc",
"ddefffffffffffedddd",
"ggggggggggggggggggg",
"{{{{{{{{{{{{{{{{{{{",
"                   ",
"@@@hhhhhhhhhhh@@@@@",
"--hiiiiiiiiiiihj---",
")hkllllllllllllhj))",
"]hk55{{555{{555h=]]",
"_hkg{(({g{(({gghm__",
":hkn{((({((({nnho::",
"[hkpp{((((({ppphq[[",
".hkrrr{((({rrrrhs..",
"#hktt{((((({ttthu##",
"|hkv{((({((({vvhw||",
"4hkx{(({x{(({xxh<44",
"2hkyy{{yyy{{yyyh:22",
"8hkzzzzzzzzzzzzh188",
"bbhiiiiiiiiiihhAbbb",
"cc.hhhhhhhhhhh.cccc",
"ddd...........ddddd",
"ggggggggggggggggggg",
"{{{{{{{{{{{{{{{{{{{"};
