/* XPM */
static char * menusel_xpm[] = {
"1 20 19 1",
" 	c None",
".	c #A3C2E7",
"+	c #A2C1E7",
"@	c #A0BFE6",
"#	c #9FBEE5",
"$	c #9DBDE5",
"%	c #9CBCE4",
"&	c #9ABBE3",
"*	c #99B9E3",
"=	c #97B8E2",
"-	c #91B3DE",
";	c #8FB2DD",
">	c #8EB1DD",
",	c #8CB0DC",
"'	c #8BAFDB",
")	c #89ADDB",
"!	c #88ACDA",
"~	c #86ABD9",
"{	c #85AAD9",
".",
".",
"+",
"@",
"#",
"$",
"%",
"&",
"*",
"=",
"-",
";",
">",
",",
"'",
")",
"!",
"~",
"{",
"{"};
