/* XPM */
static char * minimizeO_xpm[] = {
"19 38 77 1",
" 	c None",
".	c #99BAE3",
"+	c #86ABD9",
"@	c #82A8D7",
"#	c #97B8E2",
"$	c #84A9D8",
"%	c #7499C6",
"&	c #48668A",
"*	c #7297C6",
"=	c #9CB7DA",
"-	c #B2CCED",
";	c #95B7E1",
">	c #7DA4D4",
",	c #8CABD3",
"'	c #B1CAEA",
")	c #94B1D5",
"!	c #93B5E0",
"~	c #7EA5D5",
"{	c #9EBDE5",
"]	c #AFC9E9",
"^	c #9EBCE1",
"/	c #92B4DF",
"(	c #80A6D6",
"_	c #ADC7E8",
":	c #90B3DE",
"<	c #AAC5E7",
"[	c #8EB1DD",
"}	c #A9C4E5",
"|	c #8CB0DC",
"1	c #88ACDA",
"2	c #9CB9DF",
"3	c #4E76A8",
"4	c #8AAEDB",
"5	c #99B8DD",
"6	c #E1EAF6",
"7	c #83A8D7",
"8	c #8CAFDC",
"9	c #97B6DD",
"0	c #81A7D6",
"a	c #95B4DB",
"b	c #80A6D5",
"c	c #90B2DE",
"d	c #92B2D9",
"e	c #7EA4D4",
"f	c #8BAFDC",
"g	c #89A8CE",
"h	c #90B1D9",
"i	c #6D85A1",
"j	c #7DA3D3",
"k	c #7BA2D2",
"l	c #7AA1D1",
"m	c #8FB2DE",
"n	c #94B6E1",
"o	c #79A0D1",
"p	c #4C74A5",
"q	c #455D7C",
"r	c #7099CC",
"s	c #B7D0EF",
"t	c #6690C4",
"u	c #7BA2D3",
"v	c #7AA1D2",
"w	c #AEC9EB",
"x	c #789FD1",
"y	c #A9C5E9",
"z	c #779ED0",
"A	c #A5C2E7",
"B	c #769DCF",
"C	c #A0BFE5",
"D	c #759DCF",
"E	c #9CBBE3",
"F	c #749CCE",
"G	c #97B8E1",
"H	c #739BCD",
"I	c #93B5DF",
"J	c #729ACD",
"K	c #7199CC",
"L	c #89ADDA",
"..+@@@@@@@@@@@+....",
"#$%&&&&&&&&&&&%$###",
"@*&=---------=&*@;;",
">&,''''''''''')&>!!",
"~&{]]]]]]]]]]]^&~//",
"(&{___________^&(::",
"@&{<<<<<<<<<<<^&@[[",
"$&{}}}}}}}}}}}^&$||",
"+&{^^^^^^^^^^^^&+++",
"1&{23333333332^&1$$",
"4&{53666666635^&477",
"8&{93666666639^&800",
"[&{a333333333a^&[bb",
"c&,ddddddddddd)&cee",
"+f&ghhhhhhhhhgif+jj",
"k+f&&&&&&&&&&&f+kkk",
"llmnnnnnnnnnnnmllll",
"ooooooooooooooooooo",
"33333333333333p3333",
"...................",
"###qqqqqqqqqqq#####",
";;qrrrrrrrrrrrqs;;;",
"!qtuuuuuuuuuuuuqs!!",
"/qtvvvvvvvvvvvvq-//",
":qtooooooooooooqw::",
"[qtxxxxxxxxxxxxqy[[",
"|qtzzzzzzzzzzzzqA||",
"+qtBBBBBBBBBBBBqC++",
"$qtD333333333DDqE$$",
"7qtF366666663FFqG77",
"0qtH366666663HHqI00",
"bqtJ333333333JJq[bb",
"eqtKKKKKKKKKKKKq4ee",
"jjqrrrrrrrrrrqqLjjj",
"kk+qqqqqqqqqqq+kkkk",
"lll+++++++++++lllll",
"ooooooooooooooooooo",
"3333333333333333333"};
