/* XPM */
static char * minimizeA_xpm[] = {
"19 38 67 1",
" 	c None",
".	c #99BAE3",
"+	c #86ABD9",
"@	c #82A8D7",
"#	c #97B8E2",
"$	c #84A9D8",
"%	c #7499C6",
"&	c #48668A",
"*	c #7297C6",
"=	c #9CB7DA",
"-	c #B2CCED",
";	c #95B7E1",
">	c #7DA4D4",
",	c #8CABD3",
"'	c #9EBDE5",
")	c #799DCA",
"!	c #93B5E0",
"~	c #7EA5D5",
"{	c #9BBBE3",
"]	c #92B4DF",
"^	c #80A6D6",
"/	c #98B9E2",
"(	c #90B3DE",
"_	c #8EB1DD",
":	c #93B5DF",
"<	c #8CB0DC",
"[	c #88ACDA",
"}	c #83A8D7",
"|	c #4E76A8",
"1	c #8AAEDB",
"2	c #80A6D5",
"3	c #E1EAF6",
"4	c #8CAFDC",
"5	c #81A7D6",
"6	c #7AA1D2",
"7	c #90B2DE",
"8	c #779FD0",
"9	c #7EA4D4",
"0	c #8BAFDC",
"a	c #6B92C2",
"b	c #749DCF",
"c	c #7DA3D3",
"d	c #7BA2D2",
"e	c #7AA1D1",
"f	c #8FB2DE",
"g	c #94B6E1",
"h	c #79A0D1",
"i	c #455D7C",
"j	c #7099CC",
"k	c #B7D0EF",
"l	c #6690C4",
"m	c #7BA2D3",
"n	c #AEC9EB",
"o	c #789FD1",
"p	c #A9C5E9",
"q	c #779ED0",
"r	c #A5C2E7",
"s	c #769DCF",
"t	c #A0BFE5",
"u	c #759DCF",
"v	c #9CBBE3",
"w	c #749CCE",
"x	c #97B8E1",
"y	c #739BCD",
"z	c #729ACD",
"A	c #7199CC",
"B	c #89ADDA",
"..+@@@@@@@@@@@+....",
"#$%&&&&&&&&&&&%$###",
"@*&=---------=&*@;;",
">&,''''''''''')&>!!",
"~&'{{{{{{{{{{{+&~]]",
"^&'///////////+&^((",
"@&';;;;;;;;;;;+&@__",
"$&':::::::::::+&$<<",
"+&'++++++++++++&+++",
"[&'}|||||||||}+&[$$",
"1&'2|3333333|2+&1}}",
"4&'>|3333333|>+&455",
"_&'6|||||||||6+&_22",
"7&,88888888888)&799",
"+0&abbbbbbbbba&0+cc",
"d+0&&&&&&&&&&&0+ddd",
"eefgggggggggggfeeee",
"hhhhhhhhhhhhhhhhhhh",
"|||||||||||||||||||",
"...................",
"###iiiiiiiiiii#####",
";;ijjjjjjjjjjjik;;;",
"!ilmmmmmmmmmmmmik!!",
"]il666666666666i-]]",
"(ilhhhhhhhhhhhhin((",
"_ilooooooooooooip__",
"<ilqqqqqqqqqqqqir<<",
"+ilssssssssssssit++",
"$ilu|||||||||uuiv$$",
"}ilw|3333333|wwix}}",
"5ily|3333333|yyi:55",
"2ilz|||||||||zzi_22",
"9ilAAAAAAAAAAAAi199",
"ccijjjjjjjjjjiiBccc",
"dd+iiiiiiiiiii+dddd",
"eee+++++++++++eeeee",
"hhhhhhhhhhhhhhhhhhh",
"|||||||||||||||||||"};
