/* XPM */
static char *rollupO[] = {
"19 38 79 1 0 0",
"  c #000000",
"! c #455D7C",
"# c #48668A",
"$ c #6D85A1",
"% c #4C74A5",
"& c #4E76A8",
"' c #6690C4",
"( c #7297C6",
") c #7499C6",
"* c #7099CC",
"+ c #7199CC",
", c #729ACD",
"- c #739BCD",
". c #749CCE",
"/ c #89A8CE",
"0 c #759DCF",
"1 c #769DCF",
"2 c #779ED0",
"3 c #789FD1",
"4 c #79A0D1",
"5 c #7AA1D1",
"6 c #7AA1D2",
"7 c #7BA2D2",
"8 c #7BA2D3",
"9 c #7DA3D3",
": c #8CABD3",
"; c #7DA4D4",
"< c #7EA4D4",
"= c #7EA5D5",
"> c #80A6D5",
"? c #94B1D5",
"@ c #80A6D6",
"A c #81A7D6",
"B c #82A8D7",
"C c #83A8D7",
"D c #84A9D8",
"E c #86ABD9",
"F c #90B1D9",
"G c #92B2D9",
"H c #88ACDA",
"I c #89ADDA",
"J c #9CB7DA",
"K c #8AAEDB",
"L c #95B4DB",
"M c #8BAFDC",
"N c #8CAFDC",
"O c #8CB0DC",
"P c #8EB1DD",
"Q c #97B6DD",
"R c #99B8DD",
"S c #8FB2DE",
"T c #90B2DE",
"U c #90B3DE",
"V c #92B4DF",
"W c #93B5DF",
"X c #9CB9DF",
"Y c #93B5E0",
"Z c #94B6E1",
"[ c #95B7E1",
"\ c #97B8E1",
"] c #9EBCE1",
"^ c #97B8E2",
"_ c #99BAE3",
"` c #9CBBE3",
"a c #9EBDE5",
"b c #A0BFE5",
"c c #A9C4E5",
"d c #A5C2E7",
"e c #AAC5E7",
"f c #ADC7E8",
"g c #A9C5E9",
"h c #AFC9E9",
"i c #B1CAEA",
"j c #AEC9EB",
"k c #B2CCED",
"l c #B7D0EF",
"m c #E1EAF6",
"n c #FFFFFF",
"o c None",
"__EBBBBBBBBBBBE____",
"^D)###########)D^^^",
"B(#JkkkkkkkkkJ#(B[[",
";#:iiiiiiiiiii?#;YY",
"=#ah&&&&&&&&&h]#=VV",
"@#af&mmmmmmm&f]#@UU",
"B#ae&mmmmmmm&e]#BPP",
"D#ac&&&&&&&&&c]#DOO",
"E#a]]]]]]]]]]]]#EEE",
"H#aXXXXXXXXXXX]#HDD",
"K#aRRRRRRRRRRR]#KCC",
"N#aQQQQQQQQQQQ]#NAA",
"P#aLLLLLLLLLLL]#P>>",
"T#:GGGGGGGGGGG?#T<<",
"EM#/FFFFFFFFF/$ME99",
"7EM###########ME777",
"55SZZZZZZZZZZZS5555",
"4444444444444444444",
"&&&&&&&&&&&&&&%&&&&",
"___________________",
"^^^!!!!!!!!!!!^^^^^",
"[[!***********!l[[[",
"Y!'888888888888!lYY",
"V!'6&&&&&&&&&66!kVV",
"U!'4&mmmmmmm&44!jUU",
"P!'3&mmmmmmm&33!gPP",
"O!'2&&&&&&&&&22!dOO",
"E!'111111111111!bEE",
"D!'000000000000!`DD",
"C!'............!\CC",
"A!'------------!WAA",
">!',,,,,,,,,,,,!P>>",
"<!'++++++++++++!K<<",
"99!**********!!I999",
"77E!!!!!!!!!!!E7777",
"555EEEEEEEEEEE55555",
"4444444444444444444",
"&&&&&&&&&&&&&&&&&&&"
};
