/* XPM */
static char * closeO_xpm[] = {
"19 38 76 1",
" 	c None",
".	c #99BAE3",
"+	c #86ABD9",
"@	c #82A8D7",
"#	c #97B8E2",
"$	c #84A9D8",
"%	c #7499C6",
"&	c #48668A",
"*	c #7297C6",
"=	c #9CB7DA",
"-	c #B2CCED",
";	c #95B7E1",
">	c #7DA4D4",
",	c #8CABD3",
"'	c #B1CAEA",
")	c #94B1D5",
"!	c #93B5E0",
"~	c #7EA5D5",
"{	c #9EBDE5",
"]	c #AFC9E9",
"^	c #4E76A8",
"/	c #9EBCE1",
"(	c #92B4DF",
"_	c #80A6D6",
":	c #ADC7E8",
"<	c #E1EAF6",
"[	c #90B3DE",
"}	c #AAC5E7",
"|	c #8EB1DD",
"1	c #A9C4E5",
"2	c #8CB0DC",
"3	c #88ACDA",
"4	c #9CB9DF",
"5	c #8AAEDB",
"6	c #99B8DD",
"7	c #83A8D7",
"8	c #8CAFDC",
"9	c #97B6DD",
"0	c #81A7D6",
"a	c #95B4DB",
"b	c #80A6D5",
"c	c #90B2DE",
"d	c #92B2D9",
"e	c #7EA4D4",
"f	c #8BAFDC",
"g	c #89A8CE",
"h	c #90B1D9",
"i	c #6D85A1",
"j	c #7DA3D3",
"k	c #7BA2D2",
"l	c #7AA1D1",
"m	c #8FB2DE",
"n	c #94B6E1",
"o	c #79A0D1",
"p	c #455D7C",
"q	c #7099CC",
"r	c #B7D0EF",
"s	c #6690C4",
"t	c #7BA2D3",
"u	c #7AA1D2",
"v	c #AEC9EB",
"w	c #789FD1",
"x	c #A9C5E9",
"y	c #779ED0",
"z	c #A5C2E7",
"A	c #769DCF",
"B	c #A0BFE5",
"C	c #759DCF",
"D	c #9CBBE3",
"E	c #749CCE",
"F	c #97B8E1",
"G	c #739BCD",
"H	c #93B5DF",
"I	c #729ACD",
"J	c #7199CC",
"K	c #89ADDA",
"..+@@@@@@@@@@@+....",
"#$%&&&&&&&&&&&%$###",
"@*&=---------=&*@;;",
">&,''''''''''')&>!!",
"~&{]]^^]]]^^]]/&~((",
"_&{:^<<^:^<<^:/&_[[",
"@&{}^<<<^<<<^}/&@||",
"$&{11^<<<<<^11/&$22",
"+&{///^<<<^////&+++",
"3&{44^<<<<<^44/&3$$",
"5&{6^<<<^<<<^6/&577",
"8&{9^<<^9^<<^9/&800",
"|&{aa^^aaa^^aa/&|bb",
"c&,ddddddddddd)&cee",
"+f&ghhhhhhhhhgif+jj",
"k+f&&&&&&&&&&&f+kkk",
"llmnnnnnnnnnnnmllll",
"ooooooooooooooooooo",
"^^^^^^^^^^^^^^^^^^^",
"...................",
"###ppppppppppp#####",
";;pqqqqqqqqqqqpr;;;",
"!psttttttttttttpr!!",
"(psuu^^uuu^^uuup-((",
"[pso^<<^o^<<^oopv[[",
"|psw^<<<^<<<^wwpx||",
"2psyy^<<<<<^yyypz22",
"+psAAA^<<<^AAAApB++",
"$psCC^<<<<<^CCCpD$$",
"7psE^<<<^<<<^EEpF77",
"0psG^<<^G^<<^GGpH00",
"bpsII^^III^^IIIp|bb",
"epsJJJJJJJJJJJJp5ee",
"jjpqqqqqqqqqqppKjjj",
"kk+ppppppppppp+kkkk",
"lll+++++++++++lllll",
"ooooooooooooooooooo",
"^^^^^^^^^^^^^^^^^^^"};
