/* XPM */
static char * closeI_xpm[] = {
"19 38 65 1",
" 	c #EBEAE9",
".	c #DEDCDA",
"+	c #DBD9D8",
"@	c #E9E8E7",
"#	c #E0DEDD",
"$	c #CFCCCA",
"%	c #918E8A",
"&	c #E9E8E8",
"*	c #FFFFFF",
"=	c #E8E7E6",
"-	c #E4E2E2",
";	c #E7E6E5",
">	c #FEFEFE",
",	c #F9F8F8",
"'	c #E6E5E4",
")	c #DCDAD9",
"!	c #6B6A6A",
"~	c #E5E4E2",
"{	c #DDDBDA",
"]	c #E4E3E1",
"^	c #DEDCDB",
"/	c #FDFDFD",
"(	c #E3E2E0",
"_	c #DFDDDC",
":	c #DFDEDD",
"<	c #F6F4F4",
"[	c #DCDAD8",
"}	c #E0DFDE",
"|	c #F3F1F1",
"1	c #DBD9D7",
"2	c #E1E0DF",
"3	c #F0EEEE",
"4	c #DAD8D6",
"5	c #E2E1E0",
"6	c #EDEBEA",
"7	c #D9D7D5",
"8	c #E3E2E1",
"9	c #EAE8E7",
"0	c #D8D6D4",
"a	c #D6D3D2",
"b	c #E7E5E4",
"c	c #D7D5D3",
"d	c #D6D4D2",
"e	c #E2E1DF",
"f	c #D5D3D1",
"g	c #E4E3E2",
"h	c #D4D2D0",
"i	c #9D9996",
"j	c #85827E",
"k	c #C0BDBA",
"l	c #B4B1AE",
"m	c #D3D1CF",
"n	c #D2D0CE",
"o	c #FCFCFC",
"p	c #D1CFCD",
"q	c #FCFBFB",
"r	c #D0CECB",
"s	c #FBFBFB",
"t	c #CFCDCA",
"u	c #FBFAFA",
"v	c #CECCC9",
"w	c #FAF9F9",
"x	c #CDCBC8",
"y	c #CCCAC7",
"z	c #CBC9C6",
"  .+++++++++++.    ",
"@#$%%%%%%%%%%%$#@@@",
"#$%&*********&%$#==",
"+%&***********-%+;;",
"+%*>>>>>>>>>>>,%+''",
")%*>>!!>>>!!>>,%)~~",
"{%*>>!!!>!!!>>,%{]]",
"^%*///!!!!!///,%^((",
"_%*,,,,!!!,,,,,%_..",
":%*<<<!!!!!<<<,%:[[",
"}%*||!!!|!!!||,%}11",
"2%*33!!333!!33,%244",
"5%*66666666666,%577",
"8%&99999999999-%800",
".#%abbbbbbbbba%#.cc",
"d#e%%%%%%%%%%%e#ddd",
"ffegggggggggggeffff",
"hhhhhhhhhhhhhhhhhhh",
"iiiiiiiiiiiiiiiiiii",
"                   ",
"@@@jjjjjjjjjjj@@@@@",
"==jkkkkkkkkkkkj*===",
";jlccccccccccccj*;;",
"'jlffffffffffffj>''",
"~jlhh!!hhh!!hhhj/~~",
"]jlmm!!!m!!!mmmj/]]",
"(jlnnn!!!!!nnnnjo((",
".jlpppp!!!pppppjq..",
"[jlrrr!!!!!rrrrjs[[",
"1jltt!!!t!!!tttju11",
"4jlvv!!vvv!!vvvjw44",
"7jlxxxxxxxxxxxxjw77",
"0jlyyyyyyyyyyyyj,00",
"ccjzzzzzzzzzzjj,ccc",
"dd,jjjjjjjjjjj,dddd",
"fff,,,,,,,,,,,fffff",
"hhhhhhhhhhhhhhhhhhh",
"iiiiiiiiiiiiiiiiiii"};
