/* XPM */
static char * frameATL_xpm[] = {
"5 22 25 1",
" 	c None",
".	c #48668A",
"+	c #B2CCED",
"@	c #99BAE3",
"#	c #97B8E2",
"$	c #455D7C",
"%	c #9EBDE5",
"&	c #95B7E1",
"*	c #93B5E0",
"=	c #92B4DF",
"-	c #90B3DE",
";	c #8EB1DD",
">	c #8CB0DC",
",	c #86ABD9",
"'	c #84A9D8",
")	c #83A8D7",
"!	c #81A7D6",
"~	c #80A6D5",
"{	c #7EA4D4",
"]	c #7DA3D3",
"^	c #7BA2D2",
"/	c #7AA1D1",
"(	c #79A0D1",
"_	c #6D6A68",
":	c #4E76A8",
"     ",
"   ..",
"  .++",
" .+@@",
" .+##",
"$%&&&",
"$%***",
"$%===",
"$%---",
"$%;;;",
"$%>>>",
"$%,,,",
"$%'''",
"$%)))",
"$%!!!",
"$%~~~",
"$%{{{",
"$%]]]",
"$%^^^",
"$%///",
"$%(((",
"_::::"};
