/* XPM */
static char * frameITR_xpm[] = {
"5 22 23 1",
" 	c None",
".	c #85827E",
"+	c #F6F6F5",
"@	c #EBEAE9",
"#	c #D2D0CE",
"$	c #E9E8E7",
"%	c #E8E7E6",
"&	c #E7E6E5",
"*	c #E6E5E4",
"=	c #E5E4E2",
"-	c #E4E3E1",
";	c #E3E2E0",
">	c #DEDCDA",
",	c #DCDAD8",
"'	c #DBD9D7",
")	c #DAD8D6",
"!	c #D9D7D5",
"~	c #D8D6D4",
"{	c #D7D5D3",
"]	c #D6D4D2",
"^	c #D5D3D1",
"/	c #D4D2D0",
"(	c #9D9996",
"     ",
"..   ",
"++.  ",
"@@#. ",
"$$#. ",
"%%%#.",
"&&&#.",
"***#.",
"===#.",
"---#.",
";;;#.",
">>>#.",
",,,#.",
"'''#.",
")))#.",
"!!!#.",
"~~~#.",
"{{{#.",
"]]]#.",
"^^^#.",
"///#.",
"((((."};
