/* XPM */
static char * maximizeI_xpm[] = {
"19 38 66 1",
" 	c None",
".	c #EBEAE9",
"+	c #DEDCDA",
"@	c #DBD9D8",
"#	c #E9E8E7",
"$	c #E0DEDD",
"%	c #CFCCCA",
"&	c #918E8A",
"*	c #E9E8E8",
"=	c #FFFFFF",
"-	c #E8E7E6",
";	c #E4E2E2",
">	c #E7E6E5",
",	c #FEFEFE",
"'	c #F9F8F8",
")	c #E6E5E4",
"!	c #DCDAD9",
"~	c #6B6A6A",
"{	c #E5E4E2",
"]	c #DDDBDA",
"^	c #E4E3E1",
"/	c #DEDCDB",
"(	c #FDFDFD",
"_	c #E3E2E0",
":	c #DFDDDC",
"<	c #DFDEDD",
"[	c #F6F4F4",
"}	c #DCDAD8",
"|	c #E0DFDE",
"1	c #F3F1F1",
"2	c #DBD9D7",
"3	c #E1E0DF",
"4	c #F0EEEE",
"5	c #DAD8D6",
"6	c #E2E1E0",
"7	c #EDEBEA",
"8	c #D9D7D5",
"9	c #E3E2E1",
"0	c #EAE8E7",
"a	c #D8D6D4",
"b	c #D6D3D2",
"c	c #E7E5E4",
"d	c #D7D5D3",
"e	c #D6D4D2",
"f	c #E2E1DF",
"g	c #D5D3D1",
"h	c #E4E3E2",
"i	c #D4D2D0",
"j	c #9D9996",
"k	c #85827E",
"l	c #C0BDBA",
"m	c #B4B1AE",
"n	c #D3D1CF",
"o	c #D2D0CE",
"p	c #FCFCFC",
"q	c #D1CFCD",
"r	c #FCFBFB",
"s	c #D0CECB",
"t	c #FBFBFB",
"u	c #CFCDCA",
"v	c #FBFAFA",
"w	c #CECCC9",
"x	c #FAF9F9",
"y	c #CDCBC8",
"z	c #CCCAC7",
"A	c #CBC9C6",
"..+@@@@@@@@@@@+....",
"#$%&&&&&&&&&&&%$###",
"$%&*=========*&%$--",
"@&*===========;&@>>",
"@&=,,,,,,,,,,,'&@))",
"!&=,,~~~~~~~,,'&!{{",
"]&=,,~~~~~~~,,'&]^^",
"/&=((~(((((~(('&/__",
":&=''~'''''~'''&:++",
"<&=[[~[[[[[~[['&<}}",
"|&=11~11111~11'&|22",
"3&=44~~~~~~~44'&355",
"6&=77777777777'&688",
"9&*00000000000;&9aa",
"+$&bcccccccccb&$+dd",
"e$f&&&&&&&&&&&f$eee",
"ggfhhhhhhhhhhhfgggg",
"iiiiiiiiiiiiiiiiiii",
"jjjjjjjjjjjjjjjjjjj",
"...................",
"###kkkkkkkkkkk#####",
"--klllllllllllk=---",
">kmddddddddddddk=>>",
")kmggggggggggggk,))",
"{kmii~~~~~~~iiik({{",
"^kmnn~~~~~~~nnnk(^^",
"_kmoo~ooooo~oookp__",
"+kmqq~qqqqq~qqqkr++",
"}kmss~sssss~ssskt}}",
"2kmuu~uuuuu~uuukv22",
"5kmww~~~~~~~wwwkx55",
"8kmyyyyyyyyyyyykx88",
"akmzzzzzzzzzzzzk'aa",
"ddkAAAAAAAAAAkk'ddd",
"ee'kkkkkkkkkkk'eeee",
"ggg'''''''''''ggggg",
"iiiiiiiiiiiiiiiiiii",
"jjjjjjjjjjjjjjjjjjj"};
