/* XPM */
static char * unmaximizeA_xpm[] = {
"19 38 66 1",
" 	c None",
".	c #97B8E2",
"+	c #86ABD9",
"@	c #82A8D7",
"#	c #95B7E1",
"$	c #84A9D8",
"%	c #7499C6",
"&	c #48668A",
"*	c #7297C6",
"=	c #9CB7DA",
"-	c #B2CCED",
";	c #94B6E0",
">	c #7DA4D4",
",	c #8CABD3",
"'	c #9EBDE5",
")	c #799DCA",
"!	c #92B5DF",
"~	c #7EA5D5",
"{	c #9BBBE3",
"]	c #91B3DF",
"^	c #80A6D6",
"/	c #98B9E2",
"(	c #4E76A8",
"_	c #8FB2DE",
":	c #E1EAF6",
"<	c #8EB1DD",
"[	c #93B5DF",
"}	c #8CB0DC",
"|	c #88ACDA",
"1	c #83A8D7",
"2	c #8AAEDB",
"3	c #80A6D5",
"4	c #8CAFDC",
"5	c #81A7D6",
"6	c #7AA1D2",
"7	c #90B2DE",
"8	c #779FD0",
"9	c #7EA4D4",
"0	c #8BAFDC",
"a	c #6B92C2",
"b	c #749DCF",
"c	c #7DA3D3",
"d	c #7BA2D2",
"e	c #7AA1D1",
"f	c #94B6E1",
"g	c #79A0D1",
"h	c #455D7C",
"i	c #7099CC",
"j	c #B7D0EF",
"k	c #6690C4",
"l	c #7BA2D3",
"m	c #AEC9EB",
"n	c #789FD1",
"o	c #A9C5E9",
"p	c #779ED0",
"q	c #A5C2E7",
"r	c #769DCF",
"s	c #A0BFE5",
"t	c #759DCF",
"u	c #9CBBE3",
"v	c #749CCE",
"w	c #97B8E1",
"x	c #739BCD",
"y	c #729ACD",
"z	c #7199CC",
"A	c #89ADDA",
"..+@@@@@@@@@@@+....",
"#$%&&&&&&&&&&&%$###",
"@*&=---------=&*@;;",
">&,''''''''''')&>!!",
"~&'{{{{{{{{{{{+&~]]",
"^&'//(((((((//+&^__",
"@&'##(:::::(##+&@<<",
"$&'[[(:::::([[+&$}}",
"+&'++(:(((:(+++&+++",
"|&'11(:(((:(11+&|$$",
"2&'33(:::::(33+&211",
"4&'>>(((((((>>+&455",
"<&'66666666666+&<33",
"7&,88888888888)&799",
"+0&abbbbbbbbba&0+cc",
"d+0&&&&&&&&&&&0+ddd",
"ee_fffffffffff_eeee",
"ggggggggggggggggggg",
"(((((((((((((((((((",
"...................",
"###hhhhhhhhhhh#####",
";;hiiiiiiiiiiihj;;;",
"!hkllllllllllllhj!!",
"]hk666666666666h-]]",
"_hkgg(((((((ggghm__",
"<hknn(:::::(nnnho<<",
"}hkpp(:::::(ppphq}}",
"+hkrr(:(((:(rrrhs++",
"$hktt(:(((:(ttthu$$",
"1hkvv(:::::(vvvhw11",
"5hkxx(((((((xxxh[55",
"3hkyyyyyyyyyyyyh<33",
"9hkzzzzzzzzzzzzh299",
"cchiiiiiiiiiihhAccc",
"dd+hhhhhhhhhhh+dddd",
"eee+++++++++++eeeee",
"ggggggggggggggggggg",
"((((((((((((((((((("};
