/* XPM */
static char * unmaximizeO_xpm[] = {
"19 38 75 1",
" 	c None",
".	c #97B8E2",
"+	c #86ABD9",
"@	c #82A8D7",
"#	c #95B7E1",
"$	c #84A9D8",
"%	c #7499C6",
"&	c #48668A",
"*	c #7297C6",
"=	c #9CB7DA",
"-	c #B2CCED",
";	c #94B6E0",
">	c #7DA4D4",
",	c #8CABD3",
"'	c #B1CAEA",
")	c #94B1D5",
"!	c #92B5DF",
"~	c #7EA5D5",
"{	c #9EBDE5",
"]	c #AFC9E9",
"^	c #9EBCE1",
"/	c #91B3DF",
"(	c #80A6D6",
"_	c #ADC7E8",
":	c #4E76A8",
"<	c #8FB2DE",
"[	c #AAC5E7",
"}	c #E1EAF6",
"|	c #8EB1DD",
"1	c #A9C4E5",
"2	c #8CB0DC",
"3	c #88ACDA",
"4	c #9CB9DF",
"5	c #8AAEDB",
"6	c #99B8DD",
"7	c #83A8D7",
"8	c #8CAFDC",
"9	c #97B6DD",
"0	c #81A7D6",
"a	c #95B4DB",
"b	c #80A6D5",
"c	c #90B2DE",
"d	c #92B2D9",
"e	c #7EA4D4",
"f	c #8BAFDC",
"g	c #89A8CE",
"h	c #90B1D9",
"i	c #6D85A1",
"j	c #7DA3D3",
"k	c #7BA2D2",
"l	c #7AA1D1",
"m	c #94B6E1",
"n	c #79A0D1",
"o	c #455D7C",
"p	c #7099CC",
"q	c #B7D0EF",
"r	c #6690C4",
"s	c #7BA2D3",
"t	c #7AA1D2",
"u	c #AEC9EB",
"v	c #789FD1",
"w	c #A9C5E9",
"x	c #779ED0",
"y	c #A5C2E7",
"z	c #769DCF",
"A	c #A0BFE5",
"B	c #759DCF",
"C	c #9CBBE3",
"D	c #749CCE",
"E	c #97B8E1",
"F	c #739BCD",
"G	c #93B5DF",
"H	c #729ACD",
"I	c #7199CC",
"J	c #89ADDA",
"..+@@@@@@@@@@@+....",
"#$%&&&&&&&&&&&%$###",
"@*&=---------=&*@;;",
">&,''''''''''')&>!!",
"~&{]]]]]]]]]]]^&~//",
"(&{__:::::::__^&(<<",
"@&{[[:}}}}}:[[^&@||",
"$&{11:}}}}}:11^&$22",
"+&{^^:}:::}:^^^&+++",
"3&{44:}:::}:44^&3$$",
"5&{66:}}}}}:66^&577",
"8&{99:::::::99^&800",
"|&{aaaaaaaaaaa^&|bb",
"c&,ddddddddddd)&cee",
"+f&ghhhhhhhhhgif+jj",
"k+f&&&&&&&&&&&f+kkk",
"ll<mmmmmmmmmmm<llll",
"nnnnnnnnnnnnnnnnnnn",
":::::::::::::::::::",
"...................",
"###ooooooooooo#####",
";;opppppppppppoq;;;",
"!orssssssssssssoq!!",
"/ortttttttttttto-//",
"<ornn:::::::nnnou<<",
"|orvv:}}}}}:vvvow||",
"2orxx:}}}}}:xxxoy22",
"+orzz:}:::}:zzzoA++",
"$orBB:}:::}:BBBoC$$",
"7orDD:}}}}}:DDDoE77",
"0orFF:::::::FFFoG00",
"borHHHHHHHHHHHHo|bb",
"eorIIIIIIIIIIIIo5ee",
"jjoppppppppppooJjjj",
"kk+ooooooooooo+kkkk",
"lll+++++++++++lllll",
"nnnnnnnnnnnnnnnnnnn",
":::::::::::::::::::"};
