/* XPM */
static char *rolldownI[] = {
"19 38 67 1 0 0",
"  c #000000",
"! c #6B6A6A",
"# c #85827E",
"$ c #918E8A",
"% c #9D9996",
"& c #B4B1AE",
"' c #C0BDBA",
"( c #CBC9C6",
") c #CCCAC7",
"* c #CDCBC8",
"+ c #CECCC9",
", c #CFCCCA",
"- c #CFCDCA",
". c #D0CECB",
"/ c #D1CFCD",
"0 c #D2D0CE",
"1 c #D3D1CF",
"2 c #D4D2D0",
"3 c #D5D3D1",
"4 c #D6D3D2",
"5 c #D6D4D2",
"6 c #D7D5D3",
"7 c #D8D6D4",
"8 c #D9D7D5",
"9 c #DAD8D6",
": c #DBD9D7",
"; c #DBD9D8",
"< c #DCDAD8",
"= c #DCDAD9",
"> c #DDDBDA",
"? c #DEDCDA",
"@ c #DEDCDB",
"A c #DFDDDC",
"B c #DFDEDD",
"C c #E0DEDD",
"D c #E0DFDE",
"E c #E1E0DF",
"F c #E2E1DF",
"G c #E2E1E0",
"H c #E3E2E0",
"I c #E3E2E1",
"J c #E4E3E1",
"K c #E4E2E2",
"L c #E4E3E2",
"M c #E5E4E2",
"N c #E6E5E4",
"O c #E7E5E4",
"P c #E7E6E5",
"Q c #E8E7E6",
"R c #E9E8E7",
"S c #EAE8E7",
"T c #E9E8E8",
"U c #EBEAE9",
"V c #EDEBEA",
"W c #F0EEEE",
"X c #F3F1F1",
"Y c #F6F4F4",
"Z c #F9F8F8",
"[ c #FAF9F9",
"\ c #FBFAFA",
"] c #FBFBFB",
"^ c #FCFBFB",
"_ c #FCFCFC",
"` c #FDFDFD",
"a c #FEFEFE",
"b c #FFFFFF",
"c c None",
"UU?;;;;;;;;;;;?UUUU",
"RC,$$$$$$$$$$$,CRRR",
"C,$TbbbbbbbbbT$,CQQ",
";$TbbbbbbbbbbbK$;PP",
";$baT!!!!!!!TaZ$;NN",
"=$ba!,,,,,,,!aZ$=MM",
">$ba!,,,,,,,!aZ$>JJ",
"@$b`!,,,,,,,!`Z$@HH",
"A$bZ!,,,,,,,!ZZ$A??",
"B$bY!,,,,,,,!YZ$B<<",
"D$bX!,,,,,,,!XZ$D::",
"E$bW!,,,,,,,!WZ$E99",
"G$bVT!!!!!!!TVZ$G88",
"I$TSSSSSSSSSSSK$I77",
"?C$4OOOOOOOOO4$C?66",
"5CF$$$$$$$$$$$FC555",
"33FLLLLLLLLLLLF3333",
"2222222222222222222",
"%%%%%%%%%%%%%%%%%%%",
"UUUUUUUUUUUUUUUUUUU",
"RRR###########RRRRR",
"QQ#'''''''''''#bQQQ",
"P#&666666666666#bPP",
"N#&3'!!!!!!!'33#aNN",
"M#&2!,,,,,,,!22#`MM",
"J#&1!,,,,,,,!11#`JJ",
"H#&0!,,,,,,,!00#_HH",
"?#&/!,,,,,,,!//#^??",
"<#&.!,,,,,,,!..#]<<",
":#&-!,,,,,,,!--#\::",
"9#&+!,,,,,,,!++#[99",
"8#&*'!!!!!!!'**#[88",
"7#&))))))))))))#Z77",
"66#((((((((((##Z666",
"55Z###########Z5555",
"333ZZZZZZZZZZZ33333",
"2222222222222222222",
"%%%%%%%%%%%%%%%%%%%"
};
