/* XPM */
static char *xterm_16x16[] = {
"16 16 92 1 0 0",
"  c #000000",
"! c #010201",
"# c #020302",
"$ c #060706",
"% c #070706",
"& c #070806",
"' c #080807",
"( c #090908",
") c #0A0B09",
"* c #0B0C0A",
"+ c #0D0E0C",
", c #0F100D",
"- c #131412",
". c #232423",
"/ c #2F312D",
"0 c #343633",
"1 c #373837",
"2 c #464746",
"3 c #545851",
"4 c #555952",
"5 c #555655",
"6 c #5A5E57",
"7 c #97D359",
"8 c #5F625B",
"9 c #62655E",
": c #636660",
"; c #646860",
"< c #656961",
"= c #656665",
"> c #696C66",
"? c #6A6E66",
"@ c #6F736B",
"A c #70726D",
"B c #747870",
"C c #747772",
"D c #767972",
"E c #747574",
"F c #787C74",
"G c #797D75",
"H c #7C7F79",
"I c #7D8079",
"J c #7E817A",
"K c #81837D",
"L c #82857E",
"M c #83867E",
"N c #838680",
"O c #848681",
"P c #878A82",
"Q c #878983",
"R c #888B83",
"S c #848584",
"T c #898C86",
"U c #8A8C87",
"V c #8C8F87",
"W c #8D9088",
"X c #8D8F8A",
"Y c #91928D",
"Z c #90938D",
"[ c #92958D",
"\ c #939590",
"] c #979A92",
"^ c #969893",
"_ c #969993",
"` c #949594",
"a c #999C94",
"b c #989996",
"c c #9A9B97",
"d c #9DA098",
"e c #9D9F9A",
"f c #A2A59C",
"g c #A3A69D",
"h c #A3A69E",
"i c #A3A6A0",
"j c #A3A4A3",
"k c #AAACA7",
"l c #B0B2AD",
"m c #B2B4B1",
"n c #B4B6B1",
"o c #B3B4B3",
"p c #B7B9B4",
"q c #CCCDCB",
"r c #D6D7D5",
"s c #D7D7D5",
"t c #D7D8D6",
"u c #D7D8D7",
"v c #DBDBD9",
"w c #DDDDDC",
"x c #DDDEDC",
"y c #DDDEDD",
"z c #FAFAFA",
"{ c #FFFFFF",
"| c None",
"|da[WRMJGB@?<96|",
"gnsyxwwwwwwvqmC4",
"gr0''''''''%%/b4",
"fu,oooooooooo c3",
"fu+jjzjjjjjjj ^3",
"fu*`zzz`````` \3",
"fu){SzSSSSSSS Y3",
"fu(EzzzEEEEEE X3",
"fu&==z={===== U3",
"fu%5zzz555555 Q3",
"fu%22z22zzzz2 O3",
"fu$1111111111 K3",
"gt.#!!!!!!!!!-D4",
"hplkie_ZTNH7A>:4",
"|d][VPLIFB@?;86|",
"||||||||||||||||"
};
