/* XPM */
static char *xterm_32x32[] = {
"32 32 257 2 0 0",
"   c #000000",
"!  c #080B06",
"#  c #090C06",
"$  c #0A0D07",
"%  c #0B0E07",
"&  c #0A0D08",
"'  c #0C0F08",
"(  c #0D1109",
")  c #0E1109",
"*  c #0E1209",
"+  c #0F120A",
",  c #11160B",
"-  c #14190D",
".  c #151A0D",
"/  c #171D0E",
"0  c #181D0F",
"1  c #151910",
"2  c #1A2010",
"3  c #171B13",
"4  c #1B2016",
"5  c #1D2118",
"6  c #22261C",
"7  c #282D1F",
"8  c #272C20",
"9  c #292E21",
":  c #282C22",
";  c #2C3123",
"<  c #2D3224",
"=  c #2C3125",
">  c #2C3126",
"?  c #2E3326",
"@  c #2E3426",
"A  c #2F3427",
"B  c #303428",
"C  c #303529",
"D  c #31352A",
"E  c #31362A",
"F  c #32362A",
"G  c #32362B",
"H  c #32372B",
"I  c #32372C",
"J  c #33372C",
"K  c #33382D",
"L  c #373837",
"M  c #424342",
"N  c #4F524B",
"O  c #4D4E4D",
"P  c #51554E",
"Q  c #53574F",
"R  c #90D04F",
"S  c #535650",
"T  c #545850",
"U  c #575B52",
"V  c #5A5E57",
"W  c #585958",
"X  c #97D359",
"Y  c #5F625A",
"Z  c #62665E",
"[  c #606060",
"\  c #616161",
"]  c #616261",
"^  c #626361",
"_  c #656961",
"`  c #636462",
"a  c #646462",
"b  c #636363",
"c  c #636463",
"d  c #676863",
"e  c #676B63",
"f  c #656565",
"g  c #666765",
"h  c #696D65",
"i  c #6B6F67",
"j  c #686868",
"k  c #696A68",
"l  c #6D7169",
"m  c #6A6A6A",
"n  c #6C6D6B",
"o  c #6C6C6C",
"p  c #71756D",
"q  c #6E6E6E",
"r  c #6E6F6E",
"s  c #6F6F6E",
"t  c #71756E",
"u  c #707070",
"v  c #707170",
"w  c #747570",
"x  c #757971",
"y  c #727272",
"z  c #737472",
"{  c #777873",
"|  c #777974",
"}  c #787974",
"~  c #757575",
" ! c #767675",
"!! c #797A75",
"#! c #797D75",
"$! c #7A7B76",
"%! c #7A7E76",
"&! c #777777",
"'! c #787978",
"(! c #797979",
")! c #797A79",
"*! c #7D8179",
"+! c #7B7B7A",
",! c #7B7B7B",
"-! c #7F817C",
".! c #82857C",
"/! c #7D7D7D",
"0! c #7E7E7D",
"1! c #81827D",
"2! c #82867D",
"3! c #7F7F7F",
"4! c #7F807F",
"5! c #81827F",
"6! c #838480",
"7! c #848880",
"8! c #858980",
"9! c #828281",
":! c #868A81",
";! c #828282",
"<! c #878B82",
"=! c #868783",
">! c #848584",
"?! c #858584",
"@! c #878984",
"A! c #898D84",
"B! c #878785",
"C! c #898985",
"D! c #8A8E85",
"E! c #868686",
"F! c #8B8F87",
"G! c #8A8A89",
"H! c #8C8D89",
"I! c #8E9289",
"J! c #8D8E8A",
"K! c #8E8F8B",
"L! c #90948B",
"M! c #8C8C8C",
"N! c #92968D",
"O! c #8F8F8F",
"P! c #8F908F",
"Q! c #94988F",
"R! c #909090",
"S! c #939490",
"T! c #939590",
"U! c #949591",
"V! c #969A91",
"W! c #929292",
"X! c #979B92",
"Y! c #969793",
"Z! c #949494",
"[! c #999D94",
"\! c #9A9E95",
"]! c #969696",
"^! c #999996",
"_! c #999A96",
"`! c #9B9F96",
"a! c #989898",
"b! c #9A9C98",
"c! c #9DA198",
"d! c #9C9D99",
"e! c #9EA299",
"f! c #9A9B9A",
"g! c #9C9C9B",
"h! c #9E9F9B",
"i! c #A0A49B",
"j! c #A1A59C",
"k! c #A1A79C",
"l! c #9D9D9D",
"m! c #A0A09D",
"n! c #A2A69D",
"o! c #9E9E9E",
"p! c #9FA19E",
"q! c #A1A19E",
"r! c #A1A29E",
"s! c #A2A39F",
"t! c #A4A79F",
"u! c #A5A7A0",
"v! c #A3A4A1",
"w! c #A4A5A1",
"x! c #A6AAA1",
"y! c #A5A5A2",
"z! c #A5A6A3",
"{! c #C5E6A3",
"|! c #A6A7A4",
"}! c #A5A6A5",
"~! c #A8A9A5",
" # c #A8AAA6",
"!# c #A9AAA7",
"## c #ACACA9",
"$# c #ADADAA",
"%# c #ACAEAB",
"&# c #AEAFAC",
"'# c #AEB0AC",
"(# c #B1B2AF",
")# c #B0B1B0",
"*# c #B2B4B0",
"+# c #B4B5B2",
",# c #B5B7B3",
"-# c #B7B8B5",
".# c #B8BAB6",
"/# c #BABAB8",
"0# c #BCBDBA",
"1# c #BCBEBA",
"2# c #BBBCBB",
"3# c #BFBFBD",
"4# c #BEC0BD",
"5# c #C1C1BF",
"6# c #C2C2C0",
"7# c #C2C4C1",
"8# c #C5C5C3",
"9# c #C4C6C3",
":# c #C6C7C5",
";# c #C6C7C6",
"<# c #C8C8C6",
"=# c #C7C9C6",
"># c #C9CAC7",
"?# c #C9CBC8",
"@# c #CACBC9",
"A# c #CACCC9",
"B# c #CCCDCB",
"C# c #CDCFCC",
"D# c #CDD0CC",
"E# c #CED0CD",
"F# c #D0D0CE",
"G# c #D2D2D0",
"H# c #D1D2D1",
"I# c #D6D6D4",
"J# c #D6D8D5",
"K# c #D7D8D6",
"L# c #D8DAD7",
"M# c #DCDCDB",
"N# c #DDDEDD",
"O# c #E0E1E0",
"P# c #E1E2E0",
"Q# c #E2E3E2",
"R# c #E3E3E2",
"S# c #E4E5E4",
"T# c #E6E6E5",
"U# c #E6E7E5",
"V# c #E6E7E6",
"W# c #E8E8E7",
"X# c #E9E9E8",
"Y# c #E9E9E9",
"Z# c #EAEBEA",
"[# c #EBEBEA",
"\# c #ECEDEC",
"]# c #EEEEEE",
"^# c #EEEFEE",
"_# c #F0F0EF",
"`# c #F0F1F0",
"a# c #F1F2F1",
"b# c #F2F3F2",
"c# c #FAFAFA",
"d# c #FFFFFF",
"e# c None",
"e#e#e#e#e#e#e#e#e#e#e#e#e#e#e#e#e#e#e#e#e#e#e#e#e#e#e#e#e#e#e#e#",
"e#e#e#e#e#e#e#e#e#e#e#e#e#e#e#e#e#e#e#e#e#e#e#e#e#e#e#e#e#e#e#e#",
"e#e#t!n!j!j!j!j!j!j!j!j!j!j!i!c!`![!X!Q!N!L!I!F!A!<!8!7!8!e#e#e#",
"e#x!L#^#b#b#b#b#b#b#b#b#b#b#b#b#b#b#b#b#b#b#b#b#b#a#`#Z#D#.!e#e#",
"u!J#U#E#A#A#A#A#A#A#A#A#A#A#A#A#A#A#A#A#A#A#A#A#A#A#A#E#Q#>#%!e#",
"k!^#E#T!] [ [ [ [ [ \ b f j m o q u y ~ &!(!,!/!3!;!?! #C#V#t e#",
"j!b#=#^ B K J J J I H G G F E E E C C C B A @ @ ? ? ; G!?#X#i e#",
"j!b#9#` D N#N#N#N#N#N#N#N#N#N#N#N#N#N#N#N#N#N#N#N#N#< M!7#S#e e#",
"j!b#9#` > H#H#H#H#H#H#H#H#H#H#H#H#H#H#H#H#H#H#H#H#H#9 O!1#O#Z e#",
"j!b#9#` = ;#;#;#;#;#;#;#;#;#;#;#;#;#;#;#;#;#;#;#;#;#7 W!,#M#Y e#",
"e!b#9#a : 2#2#2#2#2#2#2#2#2#2#2#2#2#2#2#2#2#2#2#2#2#2 Z!'#K#V e#",
"\!b#9#g 8 )#)#)#)#)#d#)#)#)#)#)#)#)#)#)#)#)#)#)#)#)#2 a!~!G#U e#",
"V!b#9#k 6 }!}!}!d#d#d#d#}!}!}!}!}!}!}!}!}!}!}!}!}!}!/ f!r!B#Q e#",
"N!b#9#n 6 f!f!d#d#f!d#f!d#f!f!f!f!f!f!f!f!f!f!f!f!f!0 o!b!:#Q e#",
"I!a#4#s 5 P!P!d#d#P!d#P!P!P!P!P!P!P!P!P!P!P!P!P!P!P!- o!U!5#Q e#",
"D!_#.#v 4 >!>!>!d#d#d#d#>!>!>!>!>!>!>!>!>!>!>!>!>!>!. o!J!/#Q e#",
":!]#*#z 3 )!)!)!)!d#)!d#d#)!)!)!)!)!)!)!)!)!)!)!)!)!, o!=!*#Q e#",
"2!\#%# !1 r r d#r d#r d#d#r r r r r r r r r r r r r , o!-!$#Q e#",
"*![#|!'!) c c c d#d#d#d#c c c c c c c c c c c c c c + o!!!z!Q e#",
"#!Y#p!+!( W W W W d#W W W W )#)#)#)#)#)#)#W W W W W * o!{ s!Q e#",
"x W#_!0!% O O O O O O O O O c#c#c#c#c#c#c#O O O O O ' o!{ m!Q e#",
"p T#U!4!$ M M M M M M M M M M M M M M M M M M M M M % o!{ d!Q e#",
"l S#K!9!! L L L L L L L L L L L L L L L L L L L L L # o!{ _!Q e#",
"h R#@!E!& ! ! ! ! ! ! ! ! ! ! ! ! ! ! ! ! ! ! ! ! ! & g!{ Y!Q e#",
"_ P#1!5!M!R!W!Z!]!^!f!l!o!o!o!o!o!o!o!o!o!o!o!o!o!o!g!B!{ S!Q e#",
"Z I#6!} { { { { { { { { { { { { { { { { { {!X { d d d { $!H!T e#",
"Y w!/#1!{ { { { { { { { { { { { { { { { { R R { d w 6!$!C!| S e#",
"e#V y!>#F#B#@#<#8#6#3#0#/#-#+#(#&###!#|!v!q!h!b!^!Y!S!H!} T e#e#",
"e#e#P Q Q Q Q Q Q Q Q Q Q Q Q Q Q Q Q Q Q Q Q Q Q Q Q Q N e#e#e#",
"e#e#e#e#e#e#e#e#e#e#e#e#e#e#e#e#e#e#e#e#e#e#e#e#e#e#e#e#e#e#e#e#",
"e#e#e#e#e#e#e#e#e#e#e#e#e#e#e#e#e#e#e#e#e#e#e#e#e#e#e#e#e#e#e#e#",
"e#e#e#e#e#e#e#e#e#e#e#e#e#e#e#e#e#e#e#e#e#e#e#e#e#e#e#e#e#e#e#e#"
};
