/* XPM */
static char *audacious_32x32[]={
"32 32 78 2",
"Qt c #000000",
".x c #030303",
".G c #040404",
".f c #060606",
".o c #080808",
".e c #0b0b0b",
".O c #121212",
".5 c #181818",
".1 c #1a1a1a",
".8 c #1b1b1b",
".V c #1f1f1f",
".7 c #212121",
".T c #2c2c2c",
".Y c #303030",
".Z c #343434",
".S c #353535",
".K c #373737",
".B c #393939",
".M c #3b3b3b",
".E c #3e3e3e",
"#a c #3f3f3f",
"#h c #404040",
".P c #424242",
"#d c #444444",
"## c #464646",
".l c #474747",
".j c #484848",
".m c #494949",
".y c #515151",
".Q c #585858",
".s c #5a5a5a",
".X c #5b5b5b",
".# c #5c5c5c",
".A c #5e5e5e",
".F c #5f5f5f",
".L c #606060",
"#k c #656565",
".3 c #666666",
".i c #696969",
".g c #6a6a6a",
".z c #6b6b6b",
".v c #6c6c6c",
".R c #6d6d6d",
".r c #6e6e6e",
".D c #717171",
"#l c #747474",
"#c c #757575",
".w c #777777",
".J c #7b7b7b",
"#f c #7d7d7d",
"#. c #7f7f7f",
".4 c #808080",
"#j c #848484",
"#i c #868686",
".W c #878787",
".N c #919191",
".q c #949494",
".d c #a5a5a5",
".a c #a8a8a8",
".0 c #a9a9a9",
".C c #acacac",
".2 c #b9b9b9",
".U c #bababa",
".H c #bcbcbc",
".u c #bebebe",
".p c #c5c5c5",
".t c #c6c6c6",
"#e c #c8c8c8",
".9 c #c9c9c9",
".h c #cbcbcb",
"#b c #d0d0d0",
".k c #d3d3d3",
".6 c #d4d4d4",
".c c #d5d5d5",
".I c #d6d6d6",
".n c #d7d7d7",
"#g c #d8d8d8",
".b c #d9d9d9",
"QtQtQtQtQtQtQtQtQtQtQtQtQtQtQtQtQtQtQtQtQtQtQtQtQtQtQtQtQtQtQtQt",
"QtQtQtQtQtQtQtQtQtQtQtQtQtQtQtQtQtQtQtQtQtQtQtQtQtQtQtQtQtQtQtQt",
"QtQtQtQtQtQtQtQtQtQtQtQtQtQtQtQtQtQtQtQtQtQtQtQtQtQtQtQtQtQtQtQt",
"QtQtQtQtQtQtQtQtQtQtQtQtQtQtQtQtQtQtQtQtQtQtQtQtQtQtQtQtQtQtQtQt",
"QtQtQtQtQtQtQtQtQtQtQtQtQtQtQtQtQtQtQtQtQtQtQtQtQtQtQtQtQtQtQtQt",
"QtQtQtQtQtQtQtQtQtQtQtQtQtQtQtQtQtQtQtQtQtQtQtQtQtQtQtQtQtQtQtQt",
"QtQtQtQtQtQtQtQtQtQtQtQt.#.a.b.b.b.b.c.d.eQtQtQtQtQtQtQtQtQtQtQt",
"QtQtQtQtQtQtQtQtQtQt.f.g.b.b.b.b.b.b.b.b.h.iQtQtQtQtQtQtQtQtQtQt",
"QtQtQtQtQtQtQtQtQt.j.b.b.b.b.b.b.b.b.b.b.b.b.k.lQtQtQtQtQtQtQtQt",
"QtQtQtQtQtQtQtQt.m.n.b.b.b.b.b.b.b.b.b.b.b.b.b.nQtQtQtQtQtQtQtQt",
"QtQtQtQtQtQtQt.o.b.b.b.b.b.p.q.r.l.s.t.b.b.b.b.b.u.oQtQtQtQtQtQt",
"QtQtQtQtQtQtQt.v.b.b.b.b.w.xQtQtQtQt.x.y.b.b.b.b.b.zQtQtQtQtQtQt",
"QtQtQtQtQtQt.A.b.b.b.b.bQtQtQtQtQtQtQtQt.B.b.b.b.b.bQtQtQtQtQtQt",
"QtQtQtQtQtQt.C.b.b.b.b.b.D.E.F.F.GQtQtQtQt.H.b.b.b.bQtQtQtQtQtQt",
"QtQtQtQtQtQt.b.b.b.b.b.b.b.I.J.KQtQtQtQtQt.L.b.b.b.b.MQtQtQtQtQt",
"QtQtQtQtQtQt.b.b.b.b.b.b.N.OQtQtQtQtQtQtQt.P.b.b.b.b.QQtQtQtQtQt",
"QtQtQtQtQtQt.b.b.b.b.b.dQtQtQtQtQtQtQtQtQt.R.b.b.b.b.iQtQtQtQtQt",
"QtQtQtQtQtQt.b.b.b.b.b.SQtQtQt.T.U.VQtQtQt.W.b.b.b.b.XQtQtQtQtQt",
"QtQtQtQtQtQt.b.b.b.b.b.YQtQtQt.x.ZQtQtQtQt.0.b.b.b.b.1QtQtQtQtQt",
"QtQtQtQtQtQt.2.b.b.b.b.3QtQtQtQtQtQtQtQtQt.4.b.b.b.bQtQtQtQtQtQt",
"QtQtQtQtQtQt.5.6.b.b.b.b.eQtQtQt.x.7QtQt.8.9.b.b.b.6QtQtQtQtQtQt",
"QtQtQtQtQtQtQt#..b.b.b.b.U##Qt#a#b.b#c#d#e.b.b.b.b#fQtQtQtQtQtQt",
"QtQtQtQtQtQtQtQt#g.b.b.b.b.b.b.b.b.b.b.b.b.b.b.b.EQtQtQtQtQtQtQt",
"QtQtQtQtQtQtQtQt.L.b.b.b.b.b.b.b.b.b.b.b.b.b.b.bQtQtQtQtQtQtQtQt",
"QtQtQtQtQtQtQtQtQtQt.9.b.b.b.b.b.b.b.b.b.b.b#hQtQtQtQtQtQtQtQtQt",
"QtQtQtQtQtQtQtQtQtQt.O#i.b.b.b.b.b.b.b.b.I#jQtQtQtQtQtQtQtQtQtQt",
"QtQtQtQtQtQtQtQtQtQtQtQtQtQt.m#k#l#k.VQtQtQtQtQtQtQtQtQtQtQtQtQt",
"QtQtQtQtQtQtQtQtQtQtQtQtQtQtQtQtQtQtQtQtQtQtQtQtQtQtQtQtQtQtQtQt",
"QtQtQtQtQtQtQtQtQtQtQtQtQtQtQtQtQtQtQtQtQtQtQtQtQtQtQtQtQtQtQtQt",
"QtQtQtQtQtQtQtQtQtQtQtQtQtQtQtQtQtQtQtQtQtQtQtQtQtQtQtQtQtQtQtQt",
"QtQtQtQtQtQtQtQtQtQtQtQtQtQtQtQtQtQtQtQtQtQtQtQtQtQtQtQtQtQtQtQt",
"QtQtQtQtQtQtQtQtQtQtQtQtQtQtQtQtQtQtQtQtQtQtQtQtQtQtQtQtQtQtQtQt"};
