/* XPM */
static char *audacious_16x16[]={
"16 16 27 1",
". c #000000",
"q c #030303",
"c c #0b0b0b",
"p c #181818",
"o c #1a1a1a",
"r c #1b1b1b",
"y c #1f1f1f",
"n c #343434",
"j c #393939",
"l c #3b3b3b",
"t c #3e3e3e",
"v c #404040",
"f c #474747",
"w c #494949",
"# c #5c5c5c",
"i c #5e5e5e",
"m c #696969",
"x c #747474",
"k c #7b7b7b",
"e c #949494",
"h c #bebebe",
"g c #c6c6c6",
"u c #c9c9c9",
"d c #d3d3d3",
"b c #d5d5d5",
"s c #d8d8d8",
"a c #d9d9d9",
"................",
"................",
"................",
"......#aabc.....",
".....aaaaaad....",
"....aaaefgaah...",
"...iaa....jaa...",
"...aaaak...aal..",
"...aaa.....aam..",
"...aaa..n..aao..",
"...paac.q.raa...",
"....saaaaaaat...",
".....uaaaaav....",
".......wxy......",
"................",
"................"};
