/* XPM */
static char *web_browser___x__[] = {
/* columns rows colors chars-per-pixel */
"32 32 211 2",
"   c #1C1C36",
".  c #1D1D38",
"X  c #202040",
"o  c #292A4D",
"O  c #2C2C53",
"+  c #2F3057",
"@  c #2F325B",
"#  c #353764",
"$  c #363768",
"%  c #37396A",
"&  c #3A3B6D",
"*  c #3C3E71",
"=  c #3F4173",
"-  c #475566",
";  c #535F6D",
":  c #434576",
">  c #444977",
",  c #474B7A",
"<  c #4C4E7B",
"1  c #4C5E75",
"2  c #4B517C",
"3  c #48627E",
"4  c #325784",
"5  c #375A82",
"6  c #3B6599",
"7  c #3D699F",
"8  c #3D6CA3",
"9  c #3E6FA9",
"0  c #3E71AB",
"q  c #4E5783",
"w  c #535C86",
"e  c #595B86",
"r  c #525E89",
"t  c #5A5D88",
"y  c #426083",
"u  c #5D6188",
"i  c #446897",
"p  c #496D9B",
"a  c #546F90",
"s  c #626487",
"d  c #687685",
"f  c #6E718E",
"g  c #6D788E",
"h  c #646F99",
"j  c #6C7C90",
"k  c #66759A",
"l  c #6B739B",
"z  c #68789F",
"x  c #74779C",
"c  c #446EA0",
"v  c #4672A6",
"b  c #4C71A1",
"n  c #4174AF",
"m  c #4E79AC",
"M  c #5C7DA6",
"N  c #4376B0",
"B  c #4778B1",
"V  c #4C7DB5",
"C  c #6C7DA6",
"Z  c #768697",
"A  c #7B8392",
"S  c #7D819A",
"D  c #7B889B",
"F  c #5E80A9",
"G  c #4F80B7",
"H  c #5F88B6",
"J  c #5383B9",
"K  c #5887BB",
"L  c #5C8ABE",
"P  c #6C84A5",
"I  c #7385A5",
"U  c #7A86AB",
"Y  c #758DAF",
"T  c #798BAA",
"R  c #6389B5",
"E  c #7691B3",
"W  c #7D91B2",
"Q  c #7D9AB9",
"!  c #5F8DC0",
"~  c #628FC0",
"^  c #6691C3",
"/  c #6A94C4",
"(  c #6D98C7",
")  c #799DC5",
"_  c #739CCA",
"`  c #79A1CD",
"'  c #7EA5D0",
"]  c #898B8F",
"[  c #818B96",
"{  c #8A9095",
"}  c #8F949A",
"|  c #909295",
" . c #93969A",
".. c #989A9C",
"X. c #8688A7",
"o. c #8697AD",
"O. c #8B9BAF",
"+. c #949BA2",
"@. c #969FA9",
"#. c #9A9BAB",
"$. c #8297B6",
"%. c #869DB7",
"&. c #899CB0",
"*. c #839CBA",
"=. c #889EBD",
"-. c #9FA5AB",
";. c #8BA1BB",
":. c #92A1B2",
">. c #9FABB6",
",. c #92A7BE",
"<. c #A4A5A7",
"1. c #A2A6A8",
"2. c #ACADAD",
"3. c #A3A7B2",
"4. c #A1AAB4",
"5. c #ACAEB1",
"6. c #A2ACB8",
"7. c #A4B0BC",
"8. c #ACB3BC",
"9. c #B1B3B3",
"0. c #B1B6BB",
"q. c #B4B8BB",
"w. c #BABABA",
"e. c #81A0C4",
"r. c #80A3CC",
"t. c #96A7C6",
"y. c #94A8C0",
"u. c #9DAEC0",
"i. c #91AFCF",
"p. c #98B1CE",
"a. c #85AAD4",
"s. c #88AED6",
"d. c #8FB2DA",
"f. c #90B2D7",
"g. c #9BB3D1",
"h. c #93B6DC",
"j. c #97B9DE",
"k. c #9DBADB",
"l. c #A0A6C0",
"z. c #A5A8C0",
"x. c #AAB6C3",
"c. c #AFB9C5",
"v. c #A5B4CC",
"b. c #ABBAC9",
"n. c #B4BBC3",
"m. c #BABEC1",
"M. c #A1B9D5",
"N. c #ABBED4",
"B. c #9CBDE1",
"V. c #B5C1CE",
"C. c #B3C4D5",
"Z. c #BEC5D4",
"A. c #BEC9D5",
"S. c #B2C6DF",
"D. c #BBCADE",
"F. c #A5C4E6",
"G. c #ACC4E1",
"H. c #A9C7E8",
"J. c #ACCAEA",
"K. c #B3C9E2",
"L. c #B1CEED",
"P. c #B9CFE9",
"I. c #B6D0EB",
"U. c #BED3EA",
"Y. c #BAD5F2",
"T. c #C4C4C5",
"R. c #C2C6C9",
"E. c #C3C9CF",
"W. c #CDCDCD",
"Q. c #C4CBD3",
"!. c #CCCED1",
"~. c #C4CDD9",
"^. c #CDCEDA",
"/. c #CED0D2",
"(. c #CBD4DD",
"). c #D4D4D5",
"_. c #D3D3D8",
"`. c #D4D8DC",
"'. c #DBDBDC",
"]. c #C4D3E6",
"[. c #CDDAE6",
"{. c #C3D5E9",
"}. c #CCD9EA",
"|. c #D6DDE5",
" X c #D9DEE3",
".X c #D0DDEB",
"XX c #C4DCF4",
"oX c #CBDEF2",
"OX c #DFE6ED",
"+X c #CDE1F6",
"@X c #CCE2FA",
"#X c #D2E4F5",
"$X c #D8E7F4",
"%X c #DAE8F6",
"&X c #D3E6FB",
"*X c #D6E8FB",
"=X c #DDEDFE",
"-X c #E4E4E5",
";X c #E3E6EA",
":X c #E5EAEE",
">X c #EBEBEC",
",X c #E2E8F0",
"<X c #EBEEF1",
"1X c #E0EFFF",
"2X c #EFF1F3",
"3X c #E1F0FF",
"4X c #F3F3F4",
"5X c #F6F7F9",
"6X c #F7F8F8",
"7X c #FDFDFD",
"8X c None",
/* pixels */
"8X8X8X8X8X8X8X8X8X8X8X8X8X8X8X8X8X8X8X8X8X8X8X8X8X8X8X8X8X8X8X8X",
"8X8X8X8X8X8X8X8X8X8X8X8X8X8X8X8X8X8X8X8X8X8X8X8X8X8X8X8X8X8X8X8X",
"8X8X8X8X8X8X8X8X8X8X8X8X8X= = * & * = * 8X8X8X8X8X8X8X8X8X8X8X8X",
"8X8X8X8X8X8X8X8X8X8X* : X.Z.,X4X5X,X{.v.l * & 8X8X8X8X8X8X8X8X8X",
"8X8X8X8X8X8X8X8X8X= >.<X|. X7X7X7X+.{.U.{.{.U * 8X8X8X8X8X8X8X8X",
"8X8X8X8X8X8X8X* e >X<XQ.Q.%X7XR.{ b.U.K.G.,X4XQ.< & 8X8X8X8X8X8X",
"8X8X8X8X8X8X8Xx 4Xn.A.Q.7.#X5.x.+Xn.P.P.;X^.n.;X>Xu 8X8X8X8X8X8X",
"8X8X8X8X8X8Xe 7XA.+X7X-X$X3X.X*X#X+XoX~.x.+.:X5X>X;X< 8X8X8X8X8X",
"8X8X8X8X8X> 4X7X7X4X>XT.0.3X3X1X%X#XD.E.7X7X7X7X4X>X_.* 8X8X8X8X",
"8X8X8X8X8X6.7X7X7X7X_.c.[.3X3X3X*X#X+X4X4X6X7X7X4X-X-X[ 8X8X8X8X",
"8X8X8X8X: 7X7X7X7X<.>.#X1X1X1X1X=X#X>XE.Z 8.R.-X4X>X'.'.* 8X8X8X",
"8X8X8X8XX.7X7X7Xm.C.=X1X=X1X1X1X*X+XZ.Q.|.N.%.$.3.-X'.'.s 8X8X8X",
"8X8X8X= ^.7X/./.O.@X=X=X=X=X1X=X*X#X2X7X7X4X4XOX;X>X)._.#.& 8X8X",
"8X8X8X: <X[ e.y.I.XX&X=X=X=X1X*X#X,X7X7X7X7X7X7X0.T.!.D 3.& 8X8X",
"8X8X8X= 6Xy.K.H.I.Y.XX@X*X&X&X+XoX6X7X7X7X7X7X7X>X:.).W.O.& 8X8X",
"8X8X8X& ;X>XQ.k.H.L.Y.Y.Y.@X+XY.oX7X7X7X7X7X7X6X>X@.q.; ;.& 8X8X",
"8X8X8X* [.Q 6.v.,X(.].J.L.L.J.H.H.`.7X7X7X7X7X2X-X).0.a =.& 8X8X",
"8X8X8X* D.f.a.;.7X7X4XD.F.F.F.F.B.i.m.+.1.6X6X>X'./.9.y W & 8X8X",
"8X8X8X* t.k.' ].7X7X7X7XC.j.j.h.d.s.) _ _ >X>X-X'.W.- F z & 8X8X",
"8X8X8X8Xh K._ |.7X7X7X7X7X>Xp.s.a.' ` _ / 8.-X'.W.<.4 Y q 8X8X8X",
"8X8X8X8X* S.) u.7X7X7X7X7X7Xj ` ` _ ( ^ ~ ;.'.W.T. .i W & 8X8X8X",
"8X8X8X8X8XC k./ R.4X6X6X6X/.R _ ( ^ ~ L J ,./.T.w.| P r 8X8X8X8X",
"8X8X8X8X8X* p.r.H ).-X>X>X0.H ^ ~ ! J J V &.T.w...3 I % 8X8X8X8X",
"8X8X8X8X8X8X, M./ n.'.'.-.3 L L J J V B N M q.2.] T : 8X8X8X8X8X",
"8X8X8X8X8X8X@ q g.x.W.W.d G V V V N 0 0 8 7 <.2.A > O 8X8X8X8X8X",
"8X8X8X8X8X8X8X@ > n._. .5 n N n 0 0 8 7 6 p D g : o 8X8X8X8X8X8X",
"8X8X8X8X8X8X8X8XX & f o.e.R m v 7 v b C Y W e &   8X8X8X8X8X8X8X",
"8X8X8X8X8X8X8X8X8X8XO & w C W =.;.Q T k 2 & o 8X8X8X8X8X8X8X8X8X",
"8X8X8X8X8X8X8X8X8X8X8X8X. + $ % $ $ # O . 8X8X8X8X8X8X8X8X8X8X8X",
"8X8X8X8X8X8X8X8X8X8X8X8X8X8X8X8X8X8X8X8X8X8X8X8X8X8X8X8X8X8X8X8X",
"8X8X8X8X8X8X8X8X8X8X8X8X8X8X8X8X8X8X8X8X8X8X8X8X8X8X8X8X8X8X8X8X",
"8X8X8X8X8X8X8X8X8X8X8X8X8X8X8X8X8X8X8X8X8X8X8X8X8X8X8X8X8X8X8X8X"
};
