/* XPM */
static char *newmail[] = {
"16 16 11 1 0 0",
"  c #000000",
"! c #F3F37A",
"# c #F4F47A",
"$ c #F6F67B",
"% c #F8F87C",
"& c #F9F97C",
"' c #FBFB7E",
"( c #FDFD7E",
") c #FFFF80",
"* c #FFFFFF",
"+ c None",
"++++++++++++++++",
"++++++++++++++++",
"++++++++++++++++",
"+              +",
"+ )))))))))))) +",
"+  ((((((((((  +",
"+ ' '''''''' ' +",
"+ && &&&&&& && +",
"+ %%% %%%% %%% +",
"+ $$ $ $$ $ $$ +",
"+ # ###  ### # +",
"+  !!!!!!!!!!  +",
"+              +",
"++++++++++++++++",
"++++++++++++++++",
"++++++++++++++++"
};
